<?xml version="1.0" encoding="UTF-8"?><svg xmlns="http://www.w3.org/2000/svg" xmlns:xlink="http://www.w3.org/1999/xlink" viewBox="0 0 770.87 792.67"><defs><style>.cls-1{opacity:.3;}.cls-1,.cls-2,.cls-3,.cls-4,.cls-5{mix-blend-mode:multiply;}.cls-1,.cls-3,.cls-4{fill:#b3b3b3;}.cls-2,.cls-4{opacity:.5;}.cls-2,.cls-5{fill:#ccc;}.cls-6{fill:#ffb43f;}.cls-7{fill:#cfcac1;}.cls-8{clip-path:url(#clippath-2);}.cls-9{isolation:isolate;}.cls-10{fill:#f2ffe3;}.cls-11{clip-path:url(#clippath-6);}.cls-12{clip-path:url(#clippath-7);}.cls-13{fill:#ef8809;}.cls-14{clip-path:url(#clippath-1);}.cls-15{clip-path:url(#clippath-4);}.cls-16{fill:#e68913;}.cls-17{fill:#6b853d;}.cls-18{fill:#a9c55e;}.cls-19{clip-path:url(#clippath);}.cls-20{clip-path:url(#clippath-3);}.cls-21{fill:#7f9850;}.cls-5{opacity:.4;}.cls-22{fill:#b83f3d;}.cls-23{fill:#c1d97a;}.cls-24{fill:#ff9e23;}.cls-25{clip-path:url(#clippath-5);}.cls-26{fill:#4e7735;}.cls-27{fill:#d14845;}</style><clipPath id="clippath"><path class="cls-13" d="M221.72,775.84c-29.07,16.79-76.21,16.79-105.29,0-13.67-7.89-20.91-18.09-21.73-28.43-.05-.62-.07-20.34-.08-20.96-.04-11.03,7.22-2.98,21.8-11.4,29.07-16.79,76.21-16.79,105.29,0,14.45,8.34,21.72,.16,21.81,11.09,0,.61-.01,20.32-.05,20.93-.68,10.45-7.93,20.79-21.75,28.77Z"/></clipPath><clipPath id="clippath-1"><path class="cls-13" d="M217.85,751.82c-29.07,16.79-76.21,16.79-105.29,0-13.67-7.89-20.91-18.09-21.73-28.43-.05-.62-.08-20.34-.08-20.96-.04-11.03,7.22-2.98,21.8-11.4,29.07-16.79,76.21-16.79,105.29,0,14.45,8.34,21.72,.16,21.81,11.09,0,.61-.01,20.32-.05,20.93-.68,10.45-7.93,20.79-21.75,28.77Z"/></clipPath><clipPath id="clippath-2"><path class="cls-13" d="M219.4,728.57c-29.07,16.79-76.21,16.79-105.29,0-13.67-7.89-20.91-18.09-21.73-28.43-.05-.62-.07-20.34-.08-20.96-.04-11.03,7.22-2.98,21.8-11.4,29.07-16.79,76.21-16.79,105.29,0,14.45,8.34,21.71,.16,21.81,11.09,0,.61-.01,20.32-.05,20.93-.68,10.45-7.93,20.79-21.75,28.77Z"/></clipPath><clipPath id="clippath-3"><path class="cls-13" d="M220.17,705.33c-29.07,16.79-76.21,16.79-105.29,0-13.67-7.89-20.91-18.09-21.73-28.43-.05-.62-.08-20.34-.08-20.96-.04-11.03,7.22-2.98,21.8-11.4,29.07-16.79,76.21-16.79,105.29,0,14.45,8.34,21.72,.16,21.81,11.09,0,.61-.01,20.32-.05,20.93-.68,10.45-7.93,20.79-21.75,28.77Z"/></clipPath><clipPath id="clippath-4"><path class="cls-13" d="M223.27,681.31c-29.07,16.79-76.21,16.79-105.29,0-13.67-7.89-20.91-18.09-21.73-28.43-.05-.62-.07-20.34-.08-20.96-.05-11.03,7.22-2.98,21.8-11.4,29.07-16.79,76.21-16.79,105.29,0,14.45,8.34,21.71,.16,21.8,11.09,0,.61-.01,20.32-.05,20.93-.68,10.45-7.93,20.79-21.75,28.77Z"/></clipPath><clipPath id="clippath-5"><path class="cls-13" d="M220.95,658.32c-29.07,16.79-76.21,16.79-105.29,0-13.67-7.89-20.91-18.09-21.73-28.43-.05-.62-.08-20.34-.08-20.96-.04-11.03,7.22-2.98,21.8-11.4,29.07-16.79,76.21-16.79,105.29,0,14.45,8.34,21.71,.16,21.8,11.09,0,.61-.01,20.32-.05,20.93-.68,10.45-7.93,20.79-21.75,28.77Z"/></clipPath><clipPath id="clippath-6"><path class="cls-13" d="M271.52,372.7c30.21,17.44,79.2,17.44,109.42,0,14.21-8.2,21.73-18.8,22.58-29.54,.05-.65,.08-21.14,.08-21.79,.05-11.47-7.51-3.09-22.66-11.84-30.21-17.44-79.2-17.44-109.42,0-15.01,8.67-22.57,.17-22.66,11.53,0,.63,.01,21.12,.05,21.75,.71,10.86,8.24,21.6,22.61,29.89Z"/></clipPath><clipPath id="clippath-7"><path class="cls-13" d="M275.81,345.33c30.21,17.44,79.2,17.44,109.42,0,14.21-8.2,21.73-18.8,22.58-29.54,.05-.65,.08-21.14,.08-21.79,.05-11.47-7.51-3.1-22.66-11.84-30.21-17.44-79.2-17.44-109.42,0-15.01,8.67-22.57,.17-22.66,11.53,0,.63,.01,21.12,.05,21.75,.71,10.86,8.24,21.6,22.61,29.9Z"/></clipPath></defs><g class="cls-9"><g id="Layer_2"><g id="_лой_1"><g><g><g><path class="cls-18" d="M585.82,708.93L225.46,500.88c-.63-.36-.63-92.36,0-92.72l151.64,3.54,361.77,208.87-153.05,88.37Z"/><path class="cls-23" d="M585.82,617.24L226.11,409.56c-.92-.53-.92-1.85,0-2.38l150.99-87.17,361.77,208.87-153.05,88.37Z"/><polygon class="cls-26" points="587.59 607.42 241.04 407.34 375.33 329.81 721.87 529.89 587.59 607.42"/><path class="cls-23" d="M631.63,515.99c-12.02-6.94-17.57-16.24-16.78-25.38l-178.12-102.84c-16.7,.94-33.98-2.26-46.7-9.61l-38.39-22.17-65.96,38.08,38.4,22.17c12.37,7.14,17.92,16.78,16.72,26.17l179.42,103.59c15.39-.24,30.9,2.99,42.58,9.73l46.34,26.75,68.85-39.75-46.34-26.75Z"/><path class="cls-26" d="M528.02,495.5c-30.9,17.84-76.8,20.27-102.52,5.42-25.72-14.85-21.52-41.35,9.38-59.19,30.9-17.84,76.8-20.27,102.52-5.42,25.72,14.85,21.52,41.35-9.38,59.19Z"/><path class="cls-26" d="M399.15,426.1c-11.96,6.91-31.36,6.91-43.32,0-11.96-6.91-11.96-18.1,0-25.01,11.96-6.91,31.36-6.91,43.32,0,11.96,6.91,11.96,18.1,0,25.01Z"/><path class="cls-26" d="M594.81,539.06c-11.96,6.91-31.36,6.91-43.32,0-11.96-6.91-11.96-18.1,0-25.01,11.96-6.91,31.36-6.91,43.32,0,11.96,6.91,11.96,18.1,0,25.01Z"/></g><polygon class="cls-21" points="585.82 617.24 738.87 528.87 738.87 620.56 585.82 708.93 585.82 617.24"/><polygon class="cls-10" points="331.89 470.63 409.81 515.62 563.11 427.18 485.19 382.13 331.89 470.63"/><polygon class="cls-27" points="331.86 470.6 342.66 476.95 496.07 388.4 485.27 382.05 331.86 470.6"/><polygon class="cls-27" points="399.01 509.49 410.05 515.75 563.11 427.15 552.45 421.06 399.01 509.49"/><polygon class="cls-7" points="331.86 470.6 331.86 562.49 410.11 608.05 409.83 515.61 331.86 470.6"/><polygon class="cls-22" points="331.86 470.6 331.86 562.49 342.93 569.41 342.78 476.82 331.86 470.6"/><polygon class="cls-22" points="399.16 509.38 399.04 601.42 410.11 608.34 410.07 515.73 399.16 509.38"/><path class="cls-17" d="M445.04,574.24l140.52,78.9h-.85l9.61-5.32,9.64-5.28,19.32-10.47c6.43-3.5,12.9-6.94,19.36-10.38,6.45-3.47,12.96-6.83,19.44-10.25l.08,.15c-6.35,3.65-12.68,7.35-19.06,10.94-6.37,3.62-12.73,7.24-19.13,10.81l-19.18,10.73-9.61,5.32-9.63,5.28-.43,.24-.42-.24-139.75-80.27,.09-.15Z"/><polygon class="cls-17" points="224.83 486.18 278.05 516.35 224 487.7 224.83 486.18"/></g><polygon class="cls-4" points="573.82 601.93 620.95 597.52 738.45 529.02 698.03 507.17 573.82 601.93"/><g><g><path class="cls-18" d="M573.82,600.93L213.46,392.88c-.63-.36-.63-92.36,0-92.72l151.64,3.54,361.77,208.87-153.05,88.37Z"/><path class="cls-23" d="M573.82,509.24L214.11,301.56c-.92-.53-.92-1.85,0-2.38l150.99-87.17,361.77,208.87-153.05,88.37Z"/><polygon class="cls-26" points="575.59 499.42 229.04 299.34 363.33 221.81 709.87 421.89 575.59 499.42"/><path class="cls-23" d="M619.63,407.99c-12.02-6.94-17.57-16.24-16.78-25.38l-178.12-102.84c-16.7,.94-33.98-2.26-46.7-9.61l-38.39-22.17-65.96,38.08,38.4,22.17c12.37,7.14,17.92,16.78,16.72,26.17l179.42,103.59c15.39-.24,30.9,2.99,42.58,9.73l46.34,26.75,68.85-39.75-46.34-26.75Z"/><path class="cls-26" d="M516.02,387.5c-30.9,17.84-76.8,20.27-102.52,5.42-25.72-14.85-21.52-41.35,9.38-59.19,30.9-17.84,76.8-20.27,102.52-5.42,25.72,14.85,21.52,41.35-9.38,59.19Z"/><path class="cls-26" d="M387.15,318.1c-11.96,6.91-31.36,6.91-43.32,0-11.96-6.91-11.96-18.1,0-25.01,11.96-6.91,31.36-6.91,43.32,0,11.96,6.91,11.96,18.1,0,25.01Z"/><path class="cls-26" d="M582.81,431.06c-11.96,6.91-31.36,6.91-43.32,0-11.96-6.91-11.96-18.1,0-25.01,11.96-6.91,31.36-6.91,43.32,0,11.96,6.91,11.96,18.1,0,25.01Z"/></g><polygon class="cls-21" points="573.82 509.24 726.87 420.87 726.87 512.56 573.82 600.93 573.82 509.24"/><polygon class="cls-10" points="319.89 362.63 397.81 407.62 551.11 319.18 473.19 274.13 319.89 362.63"/><polygon class="cls-27" points="319.86 362.6 330.66 368.95 484.07 280.4 473.27 274.05 319.86 362.6"/><polygon class="cls-27" points="387.01 401.49 398.05 407.75 551.11 319.15 540.45 313.06 387.01 401.49"/><polygon class="cls-7" points="319.86 362.6 319.86 454.49 398.11 500.05 397.83 407.61 319.86 362.6"/><polygon class="cls-22" points="319.86 362.6 319.86 454.49 330.93 461.41 330.78 368.82 319.86 362.6"/><polygon class="cls-22" points="387.16 401.38 387.04 493.42 398.11 500.34 398.07 407.73 387.16 401.38"/><path class="cls-17" d="M433.04,466.24l140.52,78.9h-.85l9.61-5.32,9.64-5.28,19.32-10.47c6.43-3.5,12.9-6.94,19.36-10.38,6.45-3.47,12.96-6.83,19.44-10.25l.08,.15c-6.35,3.65-12.68,7.35-19.06,10.94-6.37,3.62-12.73,7.24-19.13,10.81l-19.18,10.73-9.61,5.32-9.63,5.28-.43,.24-.42-.24-139.75-80.27,.09-.15Z"/><polygon class="cls-17" points="212.83 378.18 266.05 408.35 212 379.7 212.83 378.18"/></g><polygon class="cls-1" points="591.45 499.52 591.45 529.52 591.45 541.52 726.45 465.02 726.45 445.52 591.45 499.52"/><g><g><path class="cls-18" d="M617.82,514.93l-360.36-208.05c-.63-.36-.63-92.36,0-92.72l151.64,3.54,361.77,208.87-153.05,88.37Z"/><path class="cls-23" d="M617.82,423.24L258.11,215.56c-.92-.53-.92-1.85,0-2.38l150.99-87.17,361.77,208.87-153.05,88.37Z"/><polygon class="cls-26" points="619.59 413.42 273.04 213.34 407.33 135.81 753.87 335.89 619.59 413.42"/><path class="cls-23" d="M663.63,321.99c-12.02-6.94-17.57-16.24-16.78-25.38l-178.12-102.84c-16.7,.94-33.98-2.26-46.7-9.61l-38.39-22.17-65.96,38.08,38.4,22.17c12.37,7.14,17.92,16.78,16.72,26.17l179.42,103.59c15.39-.24,30.9,2.99,42.58,9.73l46.34,26.75,68.85-39.75-46.34-26.75Z"/><path class="cls-26" d="M560.02,301.5c-30.9,17.84-76.8,20.27-102.52,5.42-25.72-14.85-21.52-41.35,9.38-59.19,30.9-17.84,76.8-20.27,102.52-5.42,25.72,14.85,21.52,41.35-9.38,59.19Z"/><path class="cls-26" d="M431.15,232.1c-11.96,6.91-31.36,6.91-43.32,0-11.96-6.91-11.96-18.1,0-25.01,11.96-6.91,31.36-6.91,43.32,0,11.96,6.91,11.96,18.1,0,25.01Z"/><path class="cls-26" d="M626.81,345.06c-11.96,6.91-31.36,6.91-43.32,0-11.96-6.91-11.96-18.1,0-25.01,11.96-6.91,31.36-6.91,43.32,0,11.96,6.91,11.96,18.1,0,25.01Z"/></g><polygon class="cls-21" points="617.82 423.24 770.87 334.87 770.87 426.56 617.82 514.93 617.82 423.24"/><polygon class="cls-10" points="363.89 276.63 441.81 321.62 595.11 233.18 517.19 188.13 363.89 276.63"/><polygon class="cls-27" points="363.86 276.6 374.66 282.95 528.07 194.4 517.27 188.05 363.86 276.6"/><polygon class="cls-27" points="431.01 315.49 442.05 321.75 595.11 233.15 584.45 227.06 431.01 315.49"/><polygon class="cls-7" points="363.86 276.6 363.86 368.49 442.11 414.05 441.83 321.61 363.86 276.6"/><polygon class="cls-22" points="363.86 276.6 363.86 368.49 374.93 375.41 374.78 282.82 363.86 276.6"/><polygon class="cls-22" points="431.16 315.38 431.04 407.42 442.11 414.34 442.07 321.73 431.16 315.38"/><path class="cls-17" d="M477.04,380.24l140.52,78.9h-.85l9.61-5.32,9.64-5.28,19.32-10.47c6.43-3.5,12.9-6.94,19.36-10.38,6.45-3.47,12.96-6.83,19.44-10.25l.08,.15c-6.35,3.65-12.68,7.35-19.06,10.94-6.37,3.62-12.73,7.24-19.13,10.81l-19.18,10.73-9.61,5.32-9.63,5.28-.43,.24-.42-.24-139.75-80.27,.09-.15Z"/><polygon class="cls-17" points="256.83 292.18 310.05 322.35 256 293.7 256.83 292.18"/></g><polygon class="cls-4" points="611.82 388.93 689.95 382.52 770.87 334.87 730.95 313.52 611.82 388.93"/><g><g><path class="cls-18" d="M611.82,388.93L251.46,180.88c-.63-.36-.63-92.36,0-92.72l151.64,3.54,361.77,208.87-153.05,88.37Z"/><path class="cls-23" d="M611.82,297.24L252.11,89.56c-.92-.53-.92-1.85,0-2.38L403.1,0l361.77,208.87-153.05,88.37Z"/><polygon class="cls-26" points="613.59 287.42 267.04 87.34 401.33 9.81 747.87 209.89 613.59 287.42"/><path class="cls-23" d="M657.63,195.99c-12.02-6.94-17.57-16.24-16.78-25.38l-178.12-102.84c-16.7,.94-33.98-2.26-46.7-9.61l-38.39-22.17-65.96,38.08,38.4,22.17c12.37,7.14,17.92,16.78,16.72,26.17l179.42,103.59c15.39-.24,30.9,2.99,42.58,9.73l46.34,26.75,68.85-39.75-46.34-26.75Z"/><path class="cls-26" d="M554.02,175.5c-30.9,17.84-76.8,20.27-102.52,5.42-25.72-14.85-21.52-41.35,9.38-59.19,30.9-17.84,76.8-20.27,102.52-5.42,25.72,14.85,21.52,41.35-9.38,59.19Z"/><path class="cls-26" d="M425.15,106.1c-11.96,6.91-31.36,6.91-43.32,0-11.96-6.91-11.96-18.1,0-25.01,11.96-6.91,31.36-6.91,43.32,0,11.96,6.91,11.96,18.1,0,25.01Z"/><path class="cls-26" d="M620.81,219.06c-11.96,6.91-31.36,6.91-43.32,0-11.96-6.91-11.96-18.1,0-25.01,11.96-6.91,31.36-6.91,43.32,0,11.96,6.91,11.96,18.1,0,25.01Z"/></g><polygon class="cls-21" points="611.82 297.24 764.87 208.87 764.87 300.56 611.82 388.93 611.82 297.24"/><polygon class="cls-10" points="357.89 150.63 435.81 195.62 589.11 107.18 511.19 62.13 357.89 150.63"/><polygon class="cls-27" points="357.86 150.6 368.66 156.95 522.07 68.4 511.27 62.05 357.86 150.6"/><polygon class="cls-27" points="425.01 189.49 436.05 195.75 589.11 107.15 578.45 101.06 425.01 189.49"/><polygon class="cls-7" points="357.86 150.6 357.86 242.49 436.11 288.05 435.83 195.61 357.86 150.6"/><polygon class="cls-22" points="357.86 150.6 357.86 242.49 368.93 249.41 368.78 156.82 357.86 150.6"/><polygon class="cls-22" points="425.16 189.38 425.04 281.42 436.11 288.34 436.07 195.73 425.16 189.38"/><path class="cls-17" d="M471.04,254.24l140.52,78.9h-.85l9.61-5.32,9.64-5.28,19.32-10.47c6.43-3.5,12.9-6.94,19.36-10.38,6.45-3.47,12.96-6.83,19.44-10.25l.08,.15c-6.35,3.65-12.68,7.35-19.06,10.94-6.37,3.62-12.73,7.24-19.13,10.81l-19.18,10.73-9.61,5.32-9.63,5.28-.43,.24-.42-.24-139.75-80.27,.09-.15Z"/><polygon class="cls-17" points="250.83 166.18 304.05 196.35 250 167.7 250.83 166.18"/></g><g><g><path class="cls-18" d="M361.82,770.93L1.46,562.88c-.63-.36-.63-92.36,0-92.72l151.64,3.54,361.77,208.87-153.05,88.37Z"/><path class="cls-23" d="M361.82,679.24L2.11,471.56c-.92-.53-.92-1.85,0-2.38l150.99-87.17,361.77,208.87-153.05,88.37Z"/><polygon class="cls-26" points="363.59 669.42 17.04 469.34 151.33 391.81 497.87 591.89 363.59 669.42"/><path class="cls-23" d="M407.63,577.99c-12.02-6.94-17.57-16.24-16.78-25.38l-178.12-102.84c-16.7,.94-33.98-2.26-46.7-9.61l-38.39-22.17-65.96,38.08,38.4,22.17c12.37,7.14,17.92,16.78,16.72,26.17l179.42,103.59c15.38-.24,30.9,2.99,42.58,9.73l46.34,26.75,68.85-39.75-46.34-26.75Z"/><path class="cls-26" d="M304.02,557.5c-30.9,17.84-76.8,20.27-102.52,5.42-25.72-14.85-21.52-41.35,9.38-59.19,30.9-17.84,76.8-20.27,102.52-5.42,25.72,14.85,21.52,41.35-9.38,59.19Z"/><path class="cls-26" d="M175.15,488.1c-11.96,6.91-31.36,6.91-43.32,0-11.96-6.91-11.96-18.1,0-25.01,11.96-6.91,31.36-6.91,43.32,0,11.96,6.91,11.96,18.1,0,25.01Z"/><path class="cls-26" d="M370.81,601.06c-11.96,6.91-31.36,6.91-43.32,0-11.96-6.91-11.96-18.1,0-25.01,11.96-6.91,31.36-6.91,43.32,0,11.96,6.91,11.96,18.1,0,25.01Z"/></g><polygon class="cls-21" points="361.82 679.24 514.87 590.87 514.87 682.56 361.82 770.93 361.82 679.24"/><polygon class="cls-10" points="107.89 532.63 185.81 577.62 339.11 489.18 261.19 444.13 107.89 532.63"/><polygon class="cls-27" points="107.86 532.6 118.66 538.95 272.07 450.4 261.27 444.05 107.86 532.6"/><polygon class="cls-27" points="175.01 571.49 186.05 577.75 339.11 489.15 328.45 483.06 175.01 571.49"/><polygon class="cls-7" points="107.86 532.6 107.86 624.49 186.11 670.05 185.83 577.61 107.86 532.6"/><polygon class="cls-22" points="107.86 532.6 107.86 624.49 118.93 631.41 118.78 538.82 107.86 532.6"/><polygon class="cls-22" points="175.16 571.38 175.04 663.42 186.11 670.34 186.07 577.73 175.16 571.38"/><path class="cls-17" d="M221.04,636.24l140.52,78.9h-.85l9.61-5.32,9.63-5.28,19.32-10.47c6.43-3.5,12.9-6.94,19.36-10.38,6.45-3.47,12.96-6.83,19.44-10.25l.08,.15c-6.35,3.65-12.68,7.35-19.06,10.94-6.37,3.62-12.73,7.24-19.13,10.81l-19.18,10.73-9.61,5.32-9.63,5.28-.43,.24-.42-.24-139.75-80.27,.09-.15Z"/><polygon class="cls-17" points=".83 548.18 54.05 578.35 0 549.7 .83 548.18"/></g><polygon class="cls-4" points="372.95 674.52 514.29 626.52 514.62 667.19 585.49 710.07 585.29 617.52 618.95 598.02 573.95 601.19 573.82 509.24 548.95 495.52 578.95 494.52 578.95 406.05 606.95 401.52 258.11 215.56 258.11 236.52 372.95 674.52"/><polygon class="cls-1" points="371.95 674.02 371.95 704.02 371.95 716.02 514.45 631.52 514.45 612.02 371.95 674.02"/><g><g><path class="cls-18" d="M401.82,690.93L41.46,482.88c-.63-.36-.63-92.36,0-92.72l151.64,3.54,361.77,208.87-153.05,88.37Z"/><path class="cls-23" d="M401.82,599.24L42.11,391.56c-.92-.53-.92-1.85,0-2.38l150.99-87.17,361.77,208.87-153.05,88.37Z"/><polygon class="cls-26" points="403.59 589.42 57.04 389.34 191.33 311.81 537.87 511.89 403.59 589.42"/><path class="cls-23" d="M447.63,497.99c-12.02-6.94-17.57-16.24-16.78-25.38l-178.12-102.84c-16.7,.94-33.98-2.26-46.7-9.61l-38.39-22.17-65.96,38.08,38.4,22.17c12.37,7.14,17.92,16.78,16.72,26.17l179.42,103.59c15.38-.24,30.9,2.99,42.58,9.73l46.34,26.75,68.85-39.75-46.34-26.75Z"/><path class="cls-26" d="M344.02,477.5c-30.9,17.84-76.8,20.27-102.52,5.42-25.72-14.85-21.52-41.35,9.38-59.19,30.9-17.84,76.8-20.27,102.52-5.42,25.72,14.85,21.52,41.35-9.38,59.19Z"/><path class="cls-26" d="M215.15,408.1c-11.96,6.91-31.36,6.91-43.32,0-11.96-6.91-11.96-18.1,0-25.01,11.96-6.91,31.36-6.91,43.32,0,11.96,6.91,11.96,18.1,0,25.01Z"/><path class="cls-26" d="M410.81,521.06c-11.96,6.91-31.36,6.91-43.32,0-11.96-6.91-11.96-18.1,0-25.01,11.96-6.91,31.36-6.91,43.32,0,11.96,6.91,11.96,18.1,0,25.01Z"/></g><polygon class="cls-21" points="401.82 599.24 554.87 510.87 554.87 602.56 401.82 690.93 401.82 599.24"/><polygon class="cls-10" points="147.89 452.63 225.81 497.62 379.11 409.18 301.19 364.13 147.89 452.63"/><polygon class="cls-27" points="147.86 452.6 158.66 458.95 312.07 370.4 301.27 364.05 147.86 452.6"/><polygon class="cls-27" points="215.01 491.49 226.05 497.75 379.11 409.15 368.45 403.06 215.01 491.49"/><polygon class="cls-7" points="147.86 452.6 147.86 544.49 226.11 590.05 225.83 497.61 147.86 452.6"/><polygon class="cls-22" points="147.86 452.6 147.86 544.49 158.93 551.41 158.78 458.82 147.86 452.6"/><polygon class="cls-22" points="215.16 491.38 215.04 583.42 226.11 590.34 226.07 497.73 215.16 491.38"/><path class="cls-17" d="M261.04,556.24l140.52,78.9h-.85l9.61-5.32,9.64-5.28,19.32-10.47c6.43-3.5,12.9-6.94,19.36-10.38,6.45-3.47,12.96-6.83,19.44-10.25l.08,.15c-6.35,3.65-12.68,7.35-19.06,10.94-6.37,3.62-12.73,7.24-19.13,10.81l-19.18,10.73-9.61,5.32-9.63,5.28-.43,.24-.42-.24-139.75-80.27,.09-.15Z"/><polygon class="cls-17" points="40.83 468.18 94.05 498.35 40 469.7 40.83 468.18"/></g><polygon class="cls-3" points="389.82 572.93 513.95 535.52 554.87 510.87 515.29 487.19 389.82 572.93"/><g><g><path class="cls-18" d="M389.82,572.93L29.46,364.88c-.63-.36-.63-92.36,0-92.72l151.64,3.54,361.77,208.87-153.05,88.37Z"/><path class="cls-23" d="M389.82,481.24L30.11,273.56c-.92-.53-.92-1.85,0-2.38l150.99-87.17,361.77,208.87-153.05,88.37Z"/><polygon class="cls-26" points="391.59 471.42 45.04 271.34 179.33 193.81 525.87 393.89 391.59 471.42"/><path class="cls-23" d="M435.63,379.99c-12.02-6.94-17.57-16.24-16.78-25.38l-178.12-102.84c-16.7,.94-33.98-2.26-46.7-9.61l-38.39-22.17-65.96,38.08,38.4,22.17c12.37,7.14,17.92,16.78,16.72,26.17l179.42,103.59c15.38-.24,30.9,2.99,42.58,9.73l46.34,26.75,68.85-39.75-46.34-26.75Z"/><path class="cls-26" d="M332.02,359.5c-30.9,17.84-76.8,20.27-102.52,5.42-25.72-14.85-21.52-41.35,9.38-59.19,30.9-17.84,76.8-20.27,102.52-5.42,25.72,14.85,21.52,41.35-9.38,59.19Z"/><path class="cls-26" d="M203.15,290.1c-11.96,6.91-31.36,6.91-43.32,0-11.96-6.91-11.96-18.1,0-25.01,11.96-6.91,31.36-6.91,43.32,0,11.96,6.91,11.96,18.1,0,25.01Z"/><path class="cls-26" d="M398.81,403.06c-11.96,6.91-31.36,6.91-43.32,0-11.96-6.91-11.96-18.1,0-25.01,11.96-6.91,31.36-6.91,43.32,0,11.96,6.91,11.96,18.1,0,25.01Z"/></g><polygon class="cls-21" points="389.82 481.24 542.87 392.87 542.87 484.56 389.82 572.93 389.82 481.24"/><polygon class="cls-10" points="135.89 334.63 213.81 379.62 367.11 291.18 289.19 246.13 135.89 334.63"/><polygon class="cls-27" points="135.86 334.6 146.66 340.95 300.07 252.4 289.27 246.05 135.86 334.6"/><polygon class="cls-27" points="203.01 373.49 214.05 379.75 367.11 291.15 356.45 285.06 203.01 373.49"/><polygon class="cls-7" points="135.86 334.6 135.86 426.49 214.11 472.05 213.83 379.61 135.86 334.6"/><polygon class="cls-22" points="135.86 334.6 135.86 426.49 146.93 433.41 146.78 340.82 135.86 334.6"/><polygon class="cls-22" points="203.16 373.38 203.04 465.42 214.11 472.34 214.07 379.73 203.16 373.38"/><path class="cls-17" d="M249.04,438.24l140.52,78.9h-.85l9.61-5.32,9.64-5.28,19.32-10.47c6.43-3.5,12.9-6.94,19.36-10.38,6.45-3.47,12.96-6.83,19.44-10.25l.08,.15c-6.35,3.65-12.68,7.35-19.06,10.94-6.37,3.62-12.73,7.24-19.13,10.81l-19.18,10.73-9.61,5.32-9.63,5.28-.43,.24-.42-.24-139.75-80.27,.09-.15Z"/><polygon class="cls-17" points="28.83 350.18 82.05 380.35 28 351.7 28.83 350.18"/></g><g><path class="cls-5" d="M283.43,727.5v-104.53l-.2-.12c-.67-10.46-7.89-20.8-21.72-28.78-11.18-6.45-25.03-10.42-39.49-11.91,.11,2.55-.04,4.28-.04,4.28,0,1.92,0,4.14,.01,6.3-3.96,7.66-3.16,12.31-3.08,29.24-1.1,4.28-.83,6.63-.78,20.8-1.06,2.94-1.59,6.04-1.58,8.89,.08,20.69-.92,24.45,3.89,32.72,.01,5.61,.03,11.92,.06,12.26,.05,.67,.14,1.35,.24,2.02-30.75-9.71-71.81-5.12-99.44,12.61-32.77,21.02-34.24,52.54-3.29,70.41,30.95,17.87,82.29,12.98,115.05-8.04,1.36-.87,2.66-1.76,3.91-2.66,2.17-1.56,31.06-27.94,32.91-29.57,9.69-8.52,12.78-13.56,13.54-13.95Z"/><g><g><path class="cls-13" d="M221.72,775.84c-29.07,16.79-76.21,16.79-105.29,0-13.67-7.89-20.91-18.09-21.73-28.43-.05-.62-.07-20.34-.08-20.96-.04-11.03,7.22-2.98,21.8-11.4,29.07-16.79,76.21-16.79,105.29,0,14.45,8.34,21.72,.16,21.81,11.09,0,.61-.01,20.32-.05,20.93-.68,10.45-7.93,20.79-21.75,28.77Z"/><g class="cls-19"><g><path class="cls-24" d="M94.81,759.92c-.68,0-1.23-.55-1.23-1.23v-35.94c0-.68,.55-1.23,1.23-1.23s1.23,.55,1.23,1.23v35.94c0,.68-.55,1.23-1.23,1.23Z"/><path class="cls-24" d="M97.64,726.45c0-.65,.5-1.18,1.14-1.23,.03,0,.08,0,.12,0,.68,0,1.24,.56,1.24,1.24v35.92c0,.68-.56,1.24-1.24,1.24-.03,0-.08,0-.12,0-.63-.06-1.14-.59-1.14-1.23v-35.92Z"/><path class="cls-24" d="M101.71,730.16c0-.66,.51-1.19,1.16-1.24,.03,0,.09,0,.12,0,.69,0,1.25,.56,1.25,1.25v35.91c0,.69-.56,1.25-1.25,1.25-.03,0-.09,0-.12,0-.64-.05-1.16-.59-1.16-1.24v-35.91Z"/><path class="cls-24" d="M105.77,733.86c0-.66,.53-1.2,1.18-1.25,.02,0,.1,0,.12,0,.69,0,1.26,.56,1.26,1.25v35.89c0,.69-.56,1.25-1.26,1.25-.02,0-.1,0-.12,0-.66-.05-1.18-.59-1.18-1.25v-35.89Z"/><path class="cls-24" d="M109.84,737.56c0-.67,.54-1.21,1.2-1.26,.02,0,.1,0,.12,0,.69,0,1.26,.57,1.26,1.26v35.88c0,.69-.57,1.26-1.26,1.26-.02,0-.1,0-.12,0-.67-.05-1.2-.58-1.2-1.26v-35.88Z"/><path class="cls-24" d="M113.91,741.27c0-.68,.55-1.22,1.23-1.27,.01,0,.11,0,.12,0,.7,0,1.27,.57,1.27,1.27v35.86c0,.7-.57,1.27-1.27,1.27-.01,0-.11,0-.12,0-.68-.04-1.23-.58-1.23-1.27v-35.86Z"/><path class="cls-24" d="M117.97,744.97c0-.69,.56-1.24,1.25-1.28,0,0,.11,0,.12,0,.7,0,1.28,.57,1.28,1.28v35.85c0,.7-.58,1.28-1.28,1.28,0,0-.11,0-.12,0-.69-.04-1.25-.58-1.25-1.28v-35.85Z"/><path class="cls-24" d="M122.04,748.68c0-.7,.57-1.25,1.27-1.28,0,0,.12,0,.12,0,.71,0,1.29,.58,1.29,1.28v35.83c0,.71-.58,1.28-1.29,1.28,0,0-.12,0-.12,0-.7-.04-1.27-.58-1.27-1.28v-35.83Z"/><path class="cls-24" d="M127.4,751.09h.13c.71,0,1.29,.58,1.29,1.29v35.82c0,.71-.58,1.29-1.29,1.29h-.13c-.71,0-1.29-.58-1.29-1.29v-35.82c0-.71,.58-1.29,1.29-1.29Z"/><path class="cls-24" d="M132.63,751.86h.13c.72,0,1.3,.58,1.3,1.3v35.81c0,.72-.58,1.3-1.3,1.3h-.13c-.72,0-1.3-.58-1.3-1.3v-35.81c0-.72,.58-1.3,1.3-1.3Z"/><path class="cls-24" d="M137.86,752.63h.14c.72,0,1.3,.58,1.3,1.3v35.8c0,.72-.58,1.3-1.3,1.3h-.14c-.72,0-1.3-.58-1.3-1.3v-35.8c0-.72,.58-1.3,1.3-1.3Z"/><path class="cls-24" d="M143.1,753.4h.15c.72,0,1.3,.58,1.3,1.3v35.8c0,.72-.58,1.3-1.3,1.3h-.15c-.72,0-1.3-.58-1.3-1.3v-35.8c0-.72,.58-1.3,1.3-1.3Z"/><rect class="cls-24" x="147.02" y="754.17" width="2.77" height="38.4" rx="1.31" ry="1.31"/><path class="cls-24" d="M153.56,754.94h.17c.72,0,1.31,.59,1.31,1.31v35.78c0,.72-.59,1.31-1.31,1.31h-.17c-.72,0-1.31-.59-1.31-1.31v-35.78c0-.72,.59-1.31,1.31-1.31Z"/><rect class="cls-24" x="157.48" y="755.71" width="2.8" height="38.4" rx="1.31" ry="1.31"/><rect class="cls-24" x="162.71" y="756.48" width="2.82" height="38.4" rx="1.32" ry="1.32"/><rect class="cls-24" x="167.94" y="757.25" width="2.83" height="38.4" rx="1.32" ry="1.32"/><rect class="cls-24" x="173.26" y="756.45" width="2.82" height="38.4" rx="1.32" ry="1.32"/><rect class="cls-24" x="178.58" y="755.66" width="2.8" height="38.4" rx="1.31" ry="1.31"/><path class="cls-24" d="M185.21,754.86h.17c.72,0,1.31,.59,1.31,1.31v35.78c0,.72-.59,1.31-1.31,1.31h-.17c-.72,0-1.31-.59-1.31-1.31v-35.78c0-.72,.59-1.31,1.31-1.31Z"/><rect class="cls-24" x="189.22" y="754.07" width="2.77" height="38.4" rx="1.31" ry="1.31"/><path class="cls-24" d="M195.85,753.27h.15c.72,0,1.3,.58,1.3,1.3v35.8c0,.72-.58,1.3-1.3,1.3h-.15c-.72,0-1.3-.58-1.3-1.3v-35.8c0-.72,.58-1.3,1.3-1.3Z"/><path class="cls-24" d="M201.16,752.47h.14c.72,0,1.3,.58,1.3,1.3v35.8c0,.72-.58,1.3-1.3,1.3h-.14c-.72,0-1.3-.58-1.3-1.3v-35.8c0-.72,.58-1.3,1.3-1.3Z"/><path class="cls-24" d="M206.48,751.68h.14c.72,0,1.3,.58,1.3,1.3v35.81c0,.72-.58,1.3-1.3,1.3h-.13c-.72,0-1.3-.58-1.3-1.3v-35.81c0-.72,.58-1.3,1.3-1.3Z"/><path class="cls-24" d="M211.8,750.88h.13c.71,0,1.29,.58,1.29,1.29v35.82c0,.71-.58,1.29-1.29,1.29h-.13c-.71,0-1.29-.58-1.29-1.29v-35.82c0-.71,.58-1.29,1.29-1.29Z"/><path class="cls-24" d="M214.32,748.75c0-.7,.57-1.25,1.27-1.28,0,0,.12,0,.12,0,.71,0,1.29,.58,1.29,1.29v35.83c0,.71-.58,1.28-1.29,1.28,0,0-.12,0-.12,0-.7-.04-1.27-.58-1.27-1.28v-35.83Z"/><path class="cls-24" d="M218.14,745.33c0-.69,.56-1.24,1.25-1.28,0,0,.11,0,.12,0,.7,0,1.28,.58,1.28,1.28v35.85c0,.7-.57,1.28-1.28,1.28,0,0-.11,0-.12,0-.69-.04-1.25-.58-1.25-1.28v-35.85Z"/><path class="cls-24" d="M221.95,741.91c0-.68,.55-1.22,1.23-1.27,.01,0,.11,0,.12,0,.7,0,1.27,.57,1.27,1.27v35.86c0,.7-.57,1.27-1.27,1.27-.01,0-.11,0-.12,0-.68-.04-1.23-.58-1.23-1.27v-35.86Z"/><path class="cls-24" d="M225.77,738.49c0-.67,.54-1.21,1.2-1.26,.02,0,.1,0,.12,0,.69,0,1.26,.57,1.26,1.26v35.88c0,.69-.57,1.26-1.26,1.26-.02,0-.1,0-.12,0-.67-.05-1.2-.58-1.2-1.26v-35.88Z"/><path class="cls-24" d="M229.58,735.07c0-.66,.53-1.2,1.18-1.25,.02,0,.1,0,.12,0,.69,0,1.26,.56,1.26,1.25v35.89c0,.69-.56,1.25-1.26,1.25-.02,0-.1,0-.12,0-.66-.05-1.18-.59-1.18-1.25v-35.89Z"/><path class="cls-24" d="M233.4,731.64c0-.66,.51-1.19,1.16-1.24,.03,0,.09,0,.12,0,.69,0,1.25,.56,1.25,1.25v35.91c0,.69-.56,1.25-1.25,1.25-.03,0-.09,0-.12,0-.64-.05-1.16-.59-1.16-1.24v-35.91Z"/><path class="cls-24" d="M237.21,728.22c0-.65,.5-1.18,1.14-1.23,.03,0,.08,0,.12,0,.68,0,1.24,.56,1.24,1.24v35.92c0,.68-.56,1.24-1.24,1.24-.03,0-.08,0-.12,0-.63-.06-1.14-.59-1.14-1.23v-35.92Z"/><path class="cls-24" d="M242.26,761.97c-.68,0-1.23-.55-1.23-1.23v-35.94c0-.68,.55-1.23,1.23-1.23s1.23,.55,1.23,1.23v35.94c0,.68-.55,1.23-1.23,1.23Z"/></g></g></g><path class="cls-24" d="M221.72,756.74c-29.07,16.79-76.21,16.79-105.29,0-29.08-16.79-29.08-44,0-60.79,29.07-16.79,76.21-16.79,105.29,0,29.07,16.79,29.08,44,0,60.79Z"/><path class="cls-6" d="M219.19,755.27c-27.68,15.98-72.55,15.98-100.22,0-27.68-15.98-27.68-41.89,0-57.86,27.67-15.98,72.55-15.98,100.22,0,27.68,15.98,27.68,41.88,0,57.86Z"/><path class="cls-16" d="M210.58,750.31c-22.92,13.23-60.09,13.23-83.01,0-22.92-13.23-22.92-34.69,0-47.93,22.92-13.23,60.09-13.23,83.01,0,22.92,13.24,22.92,34.69,0,47.93Z"/><path class="cls-24" d="M210.58,705.46c-22.92-13.24-60.09-13.24-83.01,0-10.78,6.22-16.49,14.27-17.13,22.42,.64,8.15,6.35,16.2,17.13,22.42,22.92,13.24,60.09,13.24,83.01,0,10.78-6.23,16.49-14.27,17.13-22.42-.64-8.15-6.35-16.2-17.13-22.42Z"/><path class="cls-16" d="M201.18,708.09l4.08,.18c.47,.27,.18,2.49,.19,2.84,.02,.38-.23,.76-.72,1.04l-2.55,1.47c2.77,1.94,5,3.74,6.39,5.96,1.89,3.03-1.85,6.56-7.39,6.91-4.28,.27-8.27-1.32-9.32-3.74-.42-.97-.93-1.79-1.53-2.44l-12.27,7.08c7.5,8.12,6.81,14.75-2.08,19.88-9.4,5.43-21.57,5.43-33.59,.61l-2.43,1.41c-1.06,.61-2.77,.61-3.83,0l-3.09-1.78c-.53-.31-.79-.71-.79-1.11s-.22-2.57,.31-2.87l2.83,.41c-4.71-2.72-7.95-6.29-9.51-9.66-.24-.51-.32-2.34-.26-2.84,.26-2.27,3.37-2.91,7.53-3.18,4.33-.28,8.23,1.4,9.2,3.85,.77,1.96,2.13,3.78,4.09,5.46l14.27-8.24c-16.8-16.26,13.34-30.95,34.52-19.83l2.47-1.42c.96-.56,2.53-.56,3.49,0Zm-27.96,14.02l10.45-6.03c-7.43-2.09-13.77,2-10.45,6.03Zm-8.02,12.72l-11.04,6.37c7.13,2.46,14.98-1.55,11.04-6.37Z"/><path class="cls-6" d="M201.18,705.78l3.55,2.05c.97,.56,.97,1.46,0,2.02l-2.55,1.47c2.77,1.94,4.86,4.02,6.24,6.24,1.89,3.03-1.7,6.27-7.24,6.62-4.28,.27-8.27-1.32-9.32-3.74-.42-.97-.93-1.78-1.53-2.44l-12.27,7.08c7.5,8.12,6.81,14.75-2.08,19.88-9.4,5.43-21.57,5.43-33.59,.61l-2.43,1.41c-1.06,.61-2.77,.61-3.83,0l-3.09-1.78c-1.06-.61-1.06-1.6,0-2.21l2.35-1.36c-4.71-2.72-7.95-6.29-9.51-9.66-1.33-2.85,2.19-5.7,7.27-6.02,4.33-.28,8.23,1.4,9.2,3.85,.77,1.96,2.13,3.78,4.09,5.46l14.27-8.24c-16.8-16.26,13.34-30.95,34.52-19.83l2.47-1.42c.96-.56,2.53-.56,3.49,0Zm-27.96,14.02l10.45-6.03c-7.43-2.09-13.77,2-10.45,6.03Zm-8.02,12.72l-11.04,6.37c7.13,2.46,14.98-1.55,11.04-6.37Z"/></g><g><g><path class="cls-13" d="M217.85,751.82c-29.07,16.79-76.21,16.79-105.29,0-13.67-7.89-20.91-18.09-21.73-28.43-.05-.62-.08-20.34-.08-20.96-.04-11.03,7.22-2.98,21.8-11.4,29.07-16.79,76.21-16.79,105.29,0,14.45,8.34,21.72,.16,21.81,11.09,0,.61-.01,20.32-.05,20.93-.68,10.45-7.93,20.79-21.75,28.77Z"/><g class="cls-14"><g><path class="cls-24" d="M90.93,735.9c-.68,0-1.23-.55-1.23-1.23v-35.94c0-.68,.55-1.23,1.23-1.23s1.23,.55,1.23,1.23v35.94c0,.68-.55,1.23-1.23,1.23Z"/><path class="cls-24" d="M93.77,702.43c0-.65,.5-1.18,1.14-1.23,.03,0,.08,0,.12,0,.68,0,1.24,.56,1.24,1.24v35.92c0,.68-.56,1.24-1.24,1.24-.03,0-.08,0-.12,0-.63-.06-1.14-.59-1.14-1.23v-35.92Z"/><path class="cls-24" d="M97.83,706.14c0-.66,.51-1.19,1.16-1.24,.03,0,.09,0,.12,0,.69,0,1.25,.56,1.25,1.25v35.91c0,.69-.56,1.25-1.25,1.25-.03,0-.09,0-.12,0-.64-.05-1.16-.59-1.16-1.24v-35.91Z"/><path class="cls-24" d="M101.9,709.84c0-.67,.53-1.2,1.18-1.25,.02,0,.1,0,.12,0,.69,0,1.25,.56,1.25,1.25v35.89c0,.69-.56,1.25-1.25,1.25-.02,0-.1,0-.12,0-.66-.05-1.18-.59-1.18-1.25v-35.89Z"/><path class="cls-24" d="M105.97,713.54c0-.67,.54-1.21,1.2-1.26,.02,0,.1,0,.12,0,.69,0,1.26,.57,1.26,1.26v35.88c0,.69-.57,1.26-1.26,1.26-.02,0-.1,0-.12,0-.67-.05-1.2-.59-1.2-1.26v-35.88Z"/><path class="cls-24" d="M110.03,717.25c0-.68,.55-1.22,1.23-1.27,.01,0,.11,0,.12,0,.7,0,1.27,.57,1.27,1.27v35.86c0,.7-.57,1.27-1.27,1.27-.01,0-.11,0-.12,0-.68-.04-1.23-.58-1.23-1.27v-35.86Z"/><path class="cls-24" d="M114.1,720.95c0-.69,.56-1.24,1.25-1.28,0,0,.11,0,.12,0,.7,0,1.28,.57,1.28,1.28v35.85c0,.7-.57,1.28-1.28,1.28,0,0-.11,0-.12,0-.69-.04-1.25-.58-1.25-1.28v-35.85Z"/><path class="cls-24" d="M118.16,724.66c0-.7,.57-1.25,1.27-1.28,0,0,.12,0,.12,0,.71,0,1.28,.58,1.28,1.29v35.83c0,.71-.58,1.28-1.28,1.28,0,0-.12,0-.12,0-.7-.04-1.27-.58-1.27-1.28v-35.83Z"/><rect class="cls-24" x="122.23" y="727.07" width="2.71" height="38.4" rx="1.29" ry="1.29"/><rect class="cls-24" x="127.46" y="727.84" width="2.73" height="38.4" rx="1.3" ry="1.3"/><rect class="cls-24" x="132.69" y="728.61" width="2.74" height="38.4" rx="1.3" ry="1.3"/><rect class="cls-24" x="137.92" y="729.38" width="2.76" height="38.4" rx="1.3" ry="1.3"/><rect class="cls-24" x="143.15" y="730.15" width="2.77" height="38.4" rx="1.31" ry="1.31"/><path class="cls-24" d="M149.69,730.92h.17c.72,0,1.31,.59,1.31,1.31v35.78c0,.72-.59,1.31-1.31,1.31h-.17c-.72,0-1.31-.59-1.31-1.31v-35.78c0-.72,.59-1.31,1.31-1.31Z"/><rect class="cls-24" x="153.6" y="731.69" width="2.8" height="38.4" rx="1.31" ry="1.31"/><rect class="cls-24" x="158.83" y="732.46" width="2.82" height="38.4" rx="1.32" ry="1.32"/><rect class="cls-24" x="164.06" y="733.23" width="2.83" height="38.4" rx="1.32" ry="1.32"/><rect class="cls-24" x="169.38" y="732.43" width="2.82" height="38.4" rx="1.32" ry="1.32"/><rect class="cls-24" x="174.71" y="731.64" width="2.8" height="38.4" rx="1.31" ry="1.31"/><path class="cls-24" d="M181.34,730.84h.17c.72,0,1.31,.59,1.31,1.31v35.78c0,.72-.59,1.31-1.31,1.31h-.17c-.72,0-1.31-.59-1.31-1.31v-35.78c0-.72,.59-1.31,1.31-1.31Z"/><rect class="cls-24" x="185.35" y="730.05" width="2.77" height="38.4" rx="1.31" ry="1.31"/><path class="cls-24" d="M191.97,729.25h.15c.72,0,1.3,.58,1.3,1.3v35.8c0,.72-.58,1.3-1.3,1.3h-.15c-.72,0-1.3-.58-1.3-1.3v-35.8c0-.72,.58-1.3,1.3-1.3Z"/><path class="cls-24" d="M197.29,728.45h.14c.72,0,1.3,.58,1.3,1.3v35.8c0,.72-.58,1.3-1.3,1.3h-.14c-.72,0-1.3-.58-1.3-1.3v-35.8c0-.72,.58-1.3,1.3-1.3Z"/><path class="cls-24" d="M202.61,727.66h.13c.72,0,1.3,.58,1.3,1.3v35.81c0,.72-.58,1.3-1.3,1.3h-.13c-.72,0-1.3-.58-1.3-1.3v-35.81c0-.72,.58-1.3,1.3-1.3Z"/><path class="cls-24" d="M207.93,726.86h.12c.71,0,1.29,.58,1.29,1.29v35.82c0,.71-.58,1.29-1.29,1.29h-.13c-.71,0-1.29-.58-1.29-1.29v-35.82c0-.71,.58-1.29,1.29-1.29Z"/><path class="cls-24" d="M210.45,724.73c0-.7,.57-1.25,1.27-1.28,0,0,.12,0,.12,0,.71,0,1.28,.58,1.28,1.28v35.83c0,.71-.58,1.29-1.28,1.29,0,0-.12,0-.12,0-.7-.04-1.27-.58-1.27-1.28v-35.83Z"/><path class="cls-24" d="M214.26,721.31c0-.69,.56-1.24,1.25-1.28,0,0,.11,0,.12,0,.7,0,1.28,.58,1.28,1.28v35.85c0,.7-.57,1.28-1.28,1.28,0,0-.11,0-.12,0-.69-.04-1.25-.58-1.25-1.28v-35.85Z"/><path class="cls-24" d="M218.08,717.89c0-.68,.55-1.22,1.23-1.27,.01,0,.11,0,.12,0,.7,0,1.27,.57,1.27,1.27v35.86c0,.7-.57,1.27-1.27,1.27-.01,0-.11,0-.12,0-.68-.04-1.23-.58-1.23-1.27v-35.86Z"/><path class="cls-24" d="M221.89,714.47c0-.67,.54-1.21,1.2-1.26,.02,0,.1,0,.12,0,.69,0,1.26,.57,1.26,1.26v35.88c0,.69-.57,1.26-1.26,1.26-.02,0-.1,0-.12,0-.67-.05-1.2-.59-1.2-1.26v-35.88Z"/><path class="cls-24" d="M225.71,711.05c0-.67,.53-1.2,1.18-1.25,.02,0,.1,0,.12,0,.69,0,1.25,.56,1.25,1.25v35.89c0,.69-.56,1.26-1.25,1.26-.02,0-.1,0-.12,0-.66-.05-1.18-.59-1.18-1.25v-35.89Z"/><path class="cls-24" d="M229.52,707.63c0-.66,.51-1.19,1.16-1.24,.03,0,.09,0,.12,0,.69,0,1.25,.56,1.25,1.25v35.91c0,.69-.56,1.25-1.25,1.25-.03,0-.09,0-.12,0-.64-.05-1.16-.59-1.16-1.24v-35.91Z"/><path class="cls-24" d="M233.34,704.2c0-.65,.5-1.18,1.14-1.23,.03,0,.08,0,.12,0,.68,0,1.24,.56,1.24,1.24v35.92c0,.68-.56,1.24-1.24,1.24-.03,0-.08,0-.12,0-.63-.06-1.14-.59-1.14-1.24v-35.92Z"/><path class="cls-24" d="M238.38,737.95c-.68,0-1.23-.55-1.23-1.23v-35.94c0-.68,.55-1.23,1.23-1.23s1.23,.55,1.23,1.23v35.94c0,.68-.55,1.23-1.23,1.23Z"/></g></g></g><path class="cls-24" d="M217.85,732.72c-29.07,16.79-76.21,16.79-105.29,0-29.07-16.79-29.07-44,0-60.79,29.07-16.79,76.21-16.79,105.29,0,29.07,16.79,29.08,44,0,60.79Z"/><path class="cls-6" d="M215.32,731.26c-27.68,15.98-72.55,15.98-100.22,0-27.68-15.98-27.68-41.89,0-57.86,27.68-15.98,72.55-15.98,100.22,0,27.68,15.98,27.68,41.89,0,57.86Z"/><path class="cls-16" d="M206.71,726.29c-22.92,13.23-60.09,13.23-83.01,0-22.92-13.24-22.92-34.69,0-47.93,22.92-13.24,60.09-13.23,83.01,0,22.92,13.23,22.92,34.69,0,47.93Z"/><path class="cls-24" d="M206.71,681.44c-22.92-13.24-60.09-13.24-83.01,0-10.78,6.23-16.49,14.27-17.13,22.42,.64,8.15,6.35,16.2,17.13,22.42,22.92,13.24,60.09,13.24,83.01,0,10.78-6.23,16.49-14.27,17.13-22.42-.64-8.15-6.35-16.2-17.13-22.42Z"/><path class="cls-16" d="M197.31,684.07l4.08,.18c.47,.27,.18,2.49,.19,2.84,.02,.38-.22,.76-.72,1.04l-2.55,1.47c2.78,1.94,5.01,3.74,6.39,5.96,1.88,3.03-1.85,6.56-7.39,6.91-4.28,.27-8.27-1.32-9.32-3.73-.42-.97-.93-1.79-1.53-2.44l-12.27,7.08c7.5,8.12,6.81,14.75-2.08,19.88-9.4,5.43-21.57,5.43-33.59,.61l-2.43,1.41c-1.06,.61-2.77,.61-3.83,0l-3.09-1.78c-.53-.31-.79-.71-.79-1.11s-.22-2.57,.31-2.87l2.83,.41c-4.71-2.72-7.95-6.29-9.51-9.66-.24-.51-.32-2.34-.26-2.84,.26-2.27,3.37-2.91,7.53-3.18,4.33-.28,8.23,1.4,9.2,3.85,.77,1.96,2.13,3.78,4.09,5.46l14.27-8.24c-16.8-16.26,13.34-30.95,34.52-19.83l2.47-1.42c.96-.56,2.53-.56,3.49,0Zm-27.96,14.02l10.45-6.03c-7.43-2.09-13.77,2-10.45,6.03Zm-8.02,12.72l-11.04,6.37c7.13,2.46,14.98-1.55,11.04-6.37Z"/><path class="cls-6" d="M197.31,681.76l3.55,2.05c.96,.56,.96,1.46,0,2.02l-2.55,1.47c2.78,1.94,4.86,4.02,6.24,6.24,1.89,3.03-1.7,6.27-7.24,6.62-4.28,.27-8.27-1.32-9.32-3.74-.42-.97-.93-1.79-1.53-2.44l-12.27,7.09c7.5,8.12,6.81,14.75-2.08,19.88-9.4,5.43-21.57,5.43-33.59,.61l-2.43,1.41c-1.06,.61-2.77,.61-3.83,0l-3.09-1.78c-1.06-.61-1.06-1.6,0-2.21l2.35-1.36c-4.71-2.72-7.95-6.29-9.51-9.66-1.33-2.85,2.19-5.7,7.27-6.02,4.33-.28,8.23,1.4,9.2,3.85,.77,1.96,2.13,3.78,4.09,5.46l14.27-8.24c-16.8-16.26,13.34-30.95,34.52-19.83l2.47-1.42c.96-.56,2.53-.56,3.49,0Zm-27.96,14.02l10.45-6.03c-7.43-2.09-13.77,2-10.45,6.03Zm-8.02,12.72l-11.04,6.37c7.13,2.46,14.98-1.55,11.04-6.37Z"/></g><g><g><path class="cls-13" d="M219.4,728.57c-29.07,16.79-76.21,16.79-105.29,0-13.67-7.89-20.91-18.09-21.73-28.43-.05-.62-.07-20.34-.08-20.96-.04-11.03,7.22-2.98,21.8-11.4,29.07-16.79,76.21-16.79,105.29,0,14.45,8.34,21.71,.16,21.81,11.09,0,.61-.01,20.32-.05,20.93-.68,10.45-7.93,20.79-21.75,28.77Z"/><g class="cls-8"><g><path class="cls-24" d="M92.48,712.66c-.68,0-1.23-.55-1.23-1.23v-35.94c0-.68,.55-1.23,1.23-1.23s1.23,.55,1.23,1.23v35.94c0,.68-.55,1.23-1.23,1.23Z"/><path class="cls-24" d="M95.32,679.19c0-.65,.5-1.18,1.14-1.24,.03,0,.08,0,.12,0,.68,0,1.24,.56,1.24,1.24v35.92c0,.68-.56,1.24-1.24,1.24-.03,0-.08,0-.12,0-.63-.06-1.14-.59-1.14-1.24v-35.92Z"/><path class="cls-24" d="M99.38,682.89c0-.66,.51-1.19,1.16-1.24,.03,0,.09,0,.12,0,.69,0,1.25,.56,1.25,1.25v35.91c0,.69-.56,1.25-1.25,1.25-.03,0-.09,0-.12,0-.64-.05-1.16-.59-1.16-1.24v-35.91Z"/><path class="cls-24" d="M103.45,686.6c0-.67,.53-1.2,1.18-1.25,.02,0,.1,0,.12,0,.69,0,1.25,.56,1.25,1.26v35.89c0,.69-.56,1.26-1.25,1.26-.02,0-.1,0-.12,0-.66-.05-1.18-.59-1.18-1.25v-35.89Z"/><path class="cls-24" d="M107.51,690.3c0-.67,.54-1.21,1.2-1.26,.02,0,.1,0,.12,0,.69,0,1.26,.57,1.26,1.26v35.88c0,.69-.57,1.26-1.26,1.26-.02,0-.1,0-.12,0-.67-.05-1.2-.59-1.2-1.26v-35.88Z"/><path class="cls-24" d="M111.58,694c0-.68,.55-1.22,1.23-1.27,.01,0,.11,0,.12,0,.7,0,1.27,.57,1.27,1.27v35.86c0,.7-.57,1.27-1.27,1.27-.01,0-.11,0-.12,0-.68-.04-1.23-.58-1.23-1.27v-35.86Z"/><path class="cls-24" d="M115.65,697.71c0-.69,.56-1.24,1.25-1.28,0,0,.11,0,.12,0,.7,0,1.28,.58,1.28,1.28v35.85c0,.7-.57,1.28-1.28,1.28,0,0-.11,0-.12,0-.69-.04-1.25-.58-1.25-1.28v-35.85Z"/><path class="cls-24" d="M119.71,701.41c0-.7,.57-1.25,1.27-1.28,0,0,.12,0,.12,0,.71,0,1.28,.58,1.28,1.29v35.83c0,.71-.58,1.29-1.28,1.29,0,0-.12,0-.12,0-.7-.04-1.27-.58-1.27-1.28v-35.83Z"/><path class="cls-24" d="M125.07,703.82h.13c.71,0,1.29,.58,1.29,1.29v35.82c0,.71-.58,1.29-1.29,1.29h-.13c-.71,0-1.29-.58-1.29-1.29v-35.82c0-.71,.58-1.29,1.29-1.29Z"/><path class="cls-24" d="M130.3,704.59h.13c.72,0,1.3,.58,1.3,1.3v35.81c0,.72-.58,1.3-1.3,1.3h-.13c-.72,0-1.3-.58-1.3-1.3v-35.81c0-.72,.58-1.3,1.3-1.3Z"/><path class="cls-24" d="M135.54,705.36h.14c.72,0,1.3,.58,1.3,1.3v35.8c0,.72-.58,1.3-1.3,1.3h-.14c-.72,0-1.3-.58-1.3-1.3v-35.8c0-.72,.58-1.3,1.3-1.3Z"/><path class="cls-24" d="M140.77,706.13h.15c.72,0,1.3,.58,1.3,1.3v35.8c0,.72-.58,1.3-1.3,1.3h-.15c-.72,0-1.3-.58-1.3-1.3v-35.8c0-.72,.58-1.3,1.3-1.3Z"/><rect class="cls-24" x="144.7" y="706.9" width="2.77" height="38.4" rx="1.31" ry="1.31"/><rect class="cls-24" x="149.92" y="707.67" width="2.79" height="38.4" rx="1.31" ry="1.31"/><rect class="cls-24" x="155.15" y="708.45" width="2.8" height="38.4" rx="1.31" ry="1.31"/><rect class="cls-24" x="160.38" y="709.22" width="2.82" height="38.4" rx="1.32" ry="1.32"/><rect class="cls-24" x="165.61" y="709.99" width="2.83" height="38.4" rx="1.32" ry="1.32"/><rect class="cls-24" x="170.93" y="709.19" width="2.82" height="38.4" rx="1.32" ry="1.32"/><rect class="cls-24" x="176.26" y="708.39" width="2.8" height="38.4" rx="1.31" ry="1.31"/><path class="cls-24" d="M182.89,707.6h.17c.72,0,1.31,.59,1.31,1.31v35.78c0,.72-.59,1.31-1.31,1.31h-.17c-.72,0-1.31-.59-1.31-1.31v-35.78c0-.72,.59-1.31,1.31-1.31Z"/><rect class="cls-24" x="186.9" y="706.8" width="2.77" height="38.4" rx="1.31" ry="1.31"/><rect class="cls-24" x="192.22" y="706.01" width="2.76" height="38.4" rx="1.3" ry="1.3"/><path class="cls-24" d="M198.84,705.21h.14c.72,0,1.3,.58,1.3,1.3v35.8c0,.72-.58,1.3-1.3,1.3h-.14c-.72,0-1.3-.58-1.3-1.3v-35.8c0-.72,.58-1.3,1.3-1.3Z"/><rect class="cls-24" x="202.86" y="704.41" width="2.73" height="38.4" rx="1.3" ry="1.3"/><path class="cls-24" d="M209.48,703.62h.13c.71,0,1.29,.58,1.29,1.29v35.82c0,.71-.58,1.29-1.29,1.29h-.13c-.71,0-1.29-.58-1.29-1.29v-35.82c0-.71,.58-1.29,1.29-1.29Z"/><path class="cls-24" d="M212,701.49c0-.7,.57-1.25,1.27-1.28,0,0,.12,0,.13,0,.71,0,1.28,.58,1.28,1.28v35.83c0,.71-.58,1.29-1.28,1.29,0,0-.12,0-.13,0-.7-.04-1.27-.58-1.27-1.28v-35.83Z"/><path class="cls-24" d="M215.81,698.07c0-.69,.56-1.24,1.25-1.28,0,0,.11,0,.12,0,.7,0,1.28,.58,1.28,1.28v35.85c0,.7-.57,1.28-1.28,1.28,0,0-.12,0-.12,0-.69-.04-1.25-.58-1.25-1.28v-35.85Z"/><path class="cls-24" d="M219.63,694.65c0-.68,.55-1.22,1.22-1.27,.01,0,.11,0,.12,0,.7,0,1.27,.57,1.27,1.27v35.86c0,.7-.57,1.27-1.27,1.27-.01,0-.11,0-.12,0-.68-.04-1.22-.58-1.22-1.27v-35.86Z"/><path class="cls-24" d="M223.44,691.22c0-.67,.54-1.21,1.2-1.26,.02,0,.1,0,.12,0,.69,0,1.26,.57,1.26,1.26v35.88c0,.69-.57,1.26-1.26,1.26-.02,0-.1,0-.12,0-.67-.05-1.2-.59-1.2-1.26v-35.88Z"/><path class="cls-24" d="M227.26,687.8c0-.66,.53-1.2,1.18-1.25,.02,0,.1,0,.12,0,.69,0,1.25,.56,1.25,1.25v35.89c0,.69-.56,1.26-1.25,1.26-.02,0-.1,0-.12,0-.65-.05-1.18-.59-1.18-1.25v-35.89Z"/><path class="cls-24" d="M231.07,684.38c0-.66,.51-1.19,1.16-1.24,.03,0,.09,0,.12,0,.69,0,1.25,.56,1.25,1.25v35.91c0,.69-.56,1.25-1.25,1.25-.03,0-.09,0-.12,0-.64-.05-1.16-.59-1.16-1.24v-35.91Z"/><path class="cls-24" d="M234.89,680.96c0-.65,.5-1.18,1.14-1.23,.03,0,.08,0,.12,0,.68,0,1.24,.56,1.24,1.24v35.92c0,.68-.56,1.24-1.24,1.24-.03,0-.09,0-.12,0-.63-.06-1.14-.59-1.14-1.24v-35.92Z"/><path class="cls-24" d="M239.93,714.71c-.68,0-1.23-.55-1.23-1.23v-35.94c0-.68,.55-1.23,1.23-1.23s1.23,.55,1.23,1.23v35.94c0,.68-.55,1.23-1.23,1.23Z"/></g></g></g><path class="cls-24" d="M219.4,709.47c-29.07,16.79-76.21,16.79-105.29,0-29.07-16.79-29.07-44,0-60.79,29.07-16.79,76.21-16.79,105.29,0,29.07,16.79,29.08,44,0,60.79Z"/><path class="cls-6" d="M216.87,708.01c-27.68,15.98-72.55,15.98-100.22,0-27.68-15.98-27.68-41.89,0-57.86,27.68-15.98,72.55-15.98,100.22,0,27.68,15.98,27.68,41.89,0,57.86Z"/><path class="cls-16" d="M208.26,703.04c-22.92,13.23-60.09,13.23-83.01,0-22.92-13.24-22.92-34.69,0-47.93,22.92-13.24,60.09-13.23,83.01,0,22.92,13.23,22.92,34.69,0,47.93Z"/><path class="cls-24" d="M208.26,658.2c-22.92-13.24-60.09-13.24-83.01,0-10.78,6.23-16.49,14.27-17.13,22.42,.64,8.15,6.35,16.2,17.13,22.42,22.92,13.24,60.09,13.24,83.01,0,10.78-6.23,16.49-14.27,17.13-22.42-.64-8.15-6.35-16.2-17.13-22.42Z"/><path class="cls-16" d="M198.86,660.82l4.08,.18c.47,.27,.18,2.49,.19,2.84,.02,.38-.23,.76-.72,1.04l-2.55,1.47c2.77,1.94,5,3.74,6.39,5.96,1.89,3.03-1.85,6.56-7.39,6.91-4.28,.27-8.27-1.32-9.32-3.73-.42-.97-.93-1.79-1.53-2.44l-12.27,7.09c7.5,8.12,6.81,14.75-2.08,19.88-9.4,5.43-21.57,5.43-33.59,.61l-2.43,1.41c-1.06,.61-2.77,.61-3.83,0l-3.09-1.78c-.53-.31-.79-.71-.79-1.11s-.22-2.57,.31-2.87l2.83,.41c-4.71-2.72-7.95-6.29-9.52-9.66-.24-.51-.32-2.34-.26-2.84,.26-2.27,3.37-2.91,7.53-3.18,4.33-.28,8.23,1.4,9.2,3.85,.77,1.96,2.13,3.78,4.09,5.46l14.27-8.24c-16.8-16.26,13.34-30.95,34.52-19.83l2.47-1.42c.96-.56,2.53-.56,3.49,0Zm-27.96,14.02l10.45-6.03c-7.43-2.09-13.77,2-10.45,6.03Zm-8.02,12.72l-11.04,6.37c7.13,2.46,14.98-1.55,11.04-6.37Z"/><path class="cls-6" d="M198.86,658.51l3.55,2.05c.96,.56,.96,1.46,0,2.02l-2.55,1.47c2.77,1.94,4.86,4.02,6.24,6.24,1.89,3.03-1.7,6.27-7.24,6.62-4.28,.27-8.27-1.32-9.32-3.74-.42-.97-.93-1.79-1.53-2.44l-12.27,7.08c7.5,8.12,6.81,14.75-2.08,19.88-9.4,5.43-21.57,5.43-33.59,.61l-2.43,1.41c-1.06,.61-2.77,.61-3.83,0l-3.09-1.78c-1.06-.61-1.06-1.6,0-2.21l2.35-1.36c-4.71-2.72-7.95-6.29-9.52-9.66-1.32-2.85,2.19-5.7,7.27-6.02,4.33-.28,8.23,1.4,9.2,3.85,.77,1.96,2.13,3.78,4.09,5.46l14.27-8.24c-16.8-16.26,13.34-30.95,34.52-19.83l2.47-1.42c.96-.56,2.53-.56,3.49,0Zm-27.96,14.02l10.45-6.03c-7.43-2.09-13.77,2-10.45,6.03Zm-8.02,12.72l-11.04,6.37c7.13,2.46,14.98-1.54,11.04-6.37Z"/></g><g><g><path class="cls-13" d="M220.17,705.33c-29.07,16.79-76.21,16.79-105.29,0-13.67-7.89-20.91-18.09-21.73-28.43-.05-.62-.08-20.34-.08-20.96-.04-11.03,7.22-2.98,21.8-11.4,29.07-16.79,76.21-16.79,105.29,0,14.45,8.34,21.72,.16,21.81,11.09,0,.61-.01,20.32-.05,20.93-.68,10.45-7.93,20.79-21.75,28.77Z"/><g class="cls-20"><g><path class="cls-24" d="M93.26,689.41c-.68,0-1.23-.55-1.23-1.23v-35.94c0-.68,.55-1.23,1.23-1.23s1.23,.55,1.23,1.23v35.94c0,.68-.55,1.23-1.23,1.23Z"/><path class="cls-24" d="M96.09,655.94c0-.65,.5-1.18,1.14-1.24,.03,0,.08,0,.12,0,.68,0,1.24,.56,1.24,1.24v35.92c0,.68-.56,1.24-1.24,1.24-.03,0-.08,0-.12,0-.63-.06-1.14-.59-1.14-1.23v-35.92Z"/><path class="cls-24" d="M100.16,659.65c0-.66,.51-1.19,1.16-1.24,.03,0,.09,0,.12,0,.69,0,1.25,.56,1.25,1.25v35.91c0,.69-.56,1.25-1.25,1.25-.03,0-.09,0-.12,0-.64-.05-1.16-.59-1.16-1.24v-35.91Z"/><path class="cls-24" d="M104.22,663.35c0-.67,.53-1.2,1.18-1.25,.02,0,.1,0,.12,0,.69,0,1.26,.56,1.26,1.26v35.89c0,.69-.56,1.25-1.26,1.25-.02,0-.1,0-.12,0-.66-.05-1.18-.59-1.18-1.25v-35.89Z"/><path class="cls-24" d="M108.29,667.06c0-.67,.54-1.21,1.2-1.26,.02,0,.1,0,.12,0,.69,0,1.26,.57,1.26,1.26v35.88c0,.69-.57,1.26-1.26,1.26-.02,0-.1,0-.12,0-.67-.05-1.2-.59-1.2-1.26v-35.88Z"/><path class="cls-24" d="M112.36,670.76c0-.68,.55-1.22,1.23-1.27,.01,0,.11,0,.12,0,.7,0,1.27,.57,1.27,1.27v35.86c0,.7-.57,1.27-1.27,1.27-.01,0-.11,0-.12,0-.68-.04-1.23-.58-1.23-1.27v-35.86Z"/><path class="cls-24" d="M116.42,674.46c0-.69,.56-1.24,1.25-1.28,0,0,.11,0,.12,0,.7,0,1.28,.58,1.28,1.28v35.85c0,.7-.58,1.28-1.28,1.28,0,0-.11,0-.12,0-.69-.04-1.25-.58-1.25-1.28v-35.85Z"/><path class="cls-24" d="M120.49,678.17c0-.7,.57-1.25,1.27-1.28,0,0,.12,0,.12,0,.71,0,1.29,.58,1.29,1.29v35.83c0,.71-.58,1.28-1.29,1.28,0,0-.12,0-.12,0-.7-.04-1.27-.58-1.27-1.28v-35.83Z"/><path class="cls-24" d="M125.85,680.58h.13c.71,0,1.29,.58,1.29,1.29v35.82c0,.71-.58,1.29-1.29,1.29h-.13c-.71,0-1.29-.58-1.29-1.29v-35.82c0-.71,.58-1.29,1.29-1.29Z"/><path class="cls-24" d="M131.08,681.35h.14c.72,0,1.3,.58,1.3,1.3v35.81c0,.72-.58,1.3-1.3,1.3h-.13c-.72,0-1.3-.58-1.3-1.3v-35.81c0-.72,.58-1.3,1.3-1.3Z"/><path class="cls-24" d="M136.31,682.12h.14c.72,0,1.3,.58,1.3,1.3v35.8c0,.72-.58,1.3-1.3,1.3h-.14c-.72,0-1.3-.58-1.3-1.3v-35.8c0-.72,.58-1.3,1.3-1.3Z"/><path class="cls-24" d="M141.54,682.89h.15c.72,0,1.3,.58,1.3,1.3v35.8c0,.72-.58,1.3-1.3,1.3h-.15c-.72,0-1.3-.58-1.3-1.3v-35.8c0-.72,.58-1.3,1.3-1.3Z"/><rect class="cls-24" x="145.47" y="683.66" width="2.77" height="38.4" rx="1.31" ry="1.31"/><path class="cls-24" d="M152.01,684.43h.17c.72,0,1.31,.59,1.31,1.31v35.78c0,.72-.59,1.31-1.31,1.31h-.17c-.72,0-1.31-.59-1.31-1.31v-35.78c0-.72,.59-1.31,1.31-1.31Z"/><rect class="cls-24" x="155.93" y="685.2" width="2.8" height="38.4" rx="1.31" ry="1.31"/><rect class="cls-24" x="161.16" y="685.97" width="2.82" height="38.4" rx="1.32" ry="1.32"/><rect class="cls-24" x="166.39" y="686.74" width="2.83" height="38.4" rx="1.32" ry="1.32"/><rect class="cls-24" x="171.71" y="685.95" width="2.82" height="38.4" rx="1.32" ry="1.32"/><rect class="cls-24" x="177.03" y="685.15" width="2.8" height="38.4" rx="1.31" ry="1.31"/><rect class="cls-24" x="182.35" y="684.35" width="2.79" height="38.4" rx="1.31" ry="1.31"/><rect class="cls-24" x="187.67" y="683.56" width="2.77" height="38.4" rx="1.31" ry="1.31"/><path class="cls-24" d="M194.3,682.76h.15c.72,0,1.3,.58,1.3,1.3v35.8c0,.72-.58,1.3-1.3,1.3h-.15c-.72,0-1.3-.58-1.3-1.3v-35.8c0-.72,.58-1.3,1.3-1.3Z"/><path class="cls-24" d="M199.62,681.97h.14c.72,0,1.3,.58,1.3,1.3v35.8c0,.72-.58,1.3-1.3,1.3h-.14c-.72,0-1.3-.58-1.3-1.3v-35.8c0-.72,.58-1.3,1.3-1.3Z"/><path class="cls-24" d="M204.93,681.17h.13c.72,0,1.3,.58,1.3,1.3v35.81c0,.72-.58,1.3-1.3,1.3h-.13c-.72,0-1.3-.58-1.3-1.3v-35.81c0-.72,.58-1.3,1.3-1.3Z"/><rect class="cls-24" x="208.96" y="680.38" width="2.71" height="38.4" rx="1.29" ry="1.29"/><path class="cls-24" d="M212.77,678.25c0-.7,.57-1.25,1.27-1.28,0,0,.12,0,.12,0,.71,0,1.28,.58,1.28,1.28v35.83c0,.71-.58,1.29-1.28,1.29,0,0-.12,0-.12,0-.7-.04-1.27-.58-1.27-1.28v-35.83Z"/><path class="cls-24" d="M216.59,674.82c0-.69,.56-1.24,1.25-1.28,0,0,.11,0,.12,0,.7,0,1.28,.58,1.28,1.28v35.85c0,.7-.57,1.28-1.28,1.28,0,0-.11,0-.12,0-.69-.04-1.25-.58-1.25-1.28v-35.85Z"/><path class="cls-24" d="M220.4,671.4c0-.68,.55-1.22,1.23-1.27,.01,0,.11,0,.12,0,.7,0,1.27,.57,1.27,1.27v35.86c0,.7-.57,1.27-1.27,1.27-.01,0-.11,0-.12,0-.68-.04-1.23-.58-1.23-1.27v-35.86Z"/><path class="cls-24" d="M224.22,667.98c0-.67,.54-1.21,1.2-1.26,.02,0,.1,0,.12,0,.69,0,1.26,.57,1.26,1.26v35.88c0,.69-.57,1.26-1.26,1.26-.02,0-.1,0-.12,0-.67-.05-1.2-.59-1.2-1.26v-35.88Z"/><path class="cls-24" d="M228.03,664.56c0-.67,.53-1.2,1.18-1.25,.02,0,.1,0,.12,0,.69,0,1.25,.56,1.25,1.25v35.89c0,.69-.56,1.26-1.25,1.26-.02,0-.1,0-.12,0-.66-.05-1.18-.59-1.18-1.25v-35.89Z"/><path class="cls-24" d="M231.85,661.14c0-.66,.51-1.19,1.16-1.24,.03,0,.09,0,.12,0,.69,0,1.25,.56,1.25,1.25v35.91c0,.69-.56,1.25-1.25,1.25-.03,0-.09,0-.12,0-.64-.05-1.16-.59-1.16-1.24v-35.91Z"/><path class="cls-24" d="M235.66,657.72c0-.65,.5-1.18,1.14-1.23,.03,0,.08,0,.12,0,.68,0,1.24,.56,1.24,1.24v35.92c0,.68-.56,1.24-1.24,1.24-.03,0-.08,0-.12,0-.63-.06-1.14-.59-1.14-1.24v-35.92Z"/><path class="cls-24" d="M240.71,691.46c-.68,0-1.23-.55-1.23-1.23v-35.94c0-.68,.55-1.23,1.23-1.23s1.23,.55,1.23,1.23v35.94c0,.68-.55,1.23-1.23,1.23Z"/></g></g></g><path class="cls-24" d="M220.17,686.23c-29.07,16.79-76.21,16.79-105.29,0-29.07-16.79-29.08-44,0-60.79,29.07-16.79,76.21-16.79,105.29,0,29.07,16.79,29.08,44,0,60.79Z"/><path class="cls-6" d="M217.64,684.77c-27.68,15.98-72.55,15.98-100.22,0-27.68-15.98-27.68-41.89,0-57.86,27.68-15.98,72.55-15.98,100.22,0,27.68,15.98,27.68,41.89,0,57.86Z"/><path class="cls-16" d="M209.03,679.8c-22.92,13.23-60.09,13.23-83.01,0-22.92-13.24-22.92-34.69,0-47.93,22.92-13.24,60.09-13.23,83.01,0,22.92,13.23,22.92,34.69,0,47.93Z"/><path class="cls-24" d="M209.03,634.95c-22.92-13.24-60.09-13.24-83.01,0-10.78,6.23-16.49,14.27-17.13,22.42,.64,8.15,6.35,16.2,17.13,22.42,22.92,13.24,60.09,13.24,83.01,0,10.78-6.23,16.49-14.27,17.13-22.42-.64-8.15-6.35-16.2-17.13-22.42Z"/><path class="cls-16" d="M199.63,637.58l4.08,.18c.47,.27,.18,2.49,.19,2.84,.02,.38-.22,.76-.72,1.04l-2.55,1.47c2.77,1.94,5,3.74,6.39,5.96,1.88,3.03-1.85,6.56-7.39,6.91-4.28,.27-8.27-1.32-9.32-3.73-.42-.97-.93-1.79-1.53-2.44l-12.27,7.09c7.5,8.12,6.81,14.75-2.08,19.88-9.4,5.43-21.57,5.43-33.59,.61l-2.43,1.41c-1.06,.61-2.77,.61-3.83,0l-3.09-1.78c-.53-.31-.79-.71-.79-1.11s-.22-2.57,.31-2.87l2.83,.41c-4.71-2.72-7.95-6.29-9.51-9.66-.24-.51-.32-2.34-.26-2.84,.26-2.27,3.37-2.91,7.53-3.18,4.33-.28,8.23,1.4,9.2,3.85,.77,1.96,2.13,3.78,4.09,5.46l14.27-8.24c-16.8-16.26,13.34-30.95,34.52-19.83l2.47-1.42c.96-.56,2.53-.56,3.49,0Zm-27.95,14.02l10.44-6.03c-7.43-2.09-13.77,2-10.44,6.03Zm-8.03,12.72l-11.04,6.37c7.13,2.46,14.98-1.55,11.04-6.37Z"/><path class="cls-6" d="M199.63,635.27l3.55,2.05c.96,.56,.96,1.46,0,2.02l-2.55,1.47c2.77,1.94,4.86,4.02,6.24,6.24,1.88,3.03-1.7,6.27-7.24,6.62-4.28,.27-8.27-1.32-9.32-3.74-.42-.97-.93-1.79-1.53-2.44l-12.27,7.08c7.5,8.12,6.81,14.75-2.08,19.88-9.4,5.43-21.57,5.43-33.59,.61l-2.43,1.41c-1.06,.61-2.77,.61-3.83,0l-3.09-1.78c-1.06-.61-1.06-1.6,0-2.21l2.35-1.36c-4.71-2.72-7.95-6.29-9.51-9.66-1.32-2.85,2.19-5.7,7.27-6.02,4.33-.28,8.23,1.4,9.2,3.85,.77,1.96,2.13,3.78,4.09,5.46l14.27-8.24c-16.8-16.26,13.34-30.95,34.52-19.83l2.47-1.42c.96-.56,2.53-.56,3.49,0Zm-27.95,14.02l10.44-6.03c-7.43-2.09-13.77,2-10.44,6.03Zm-8.03,12.72l-11.04,6.37c7.13,2.46,14.98-1.54,11.04-6.37Z"/></g><g><g><path class="cls-13" d="M223.27,681.31c-29.07,16.79-76.21,16.79-105.29,0-13.67-7.89-20.91-18.09-21.73-28.43-.05-.62-.07-20.34-.08-20.96-.05-11.03,7.22-2.98,21.8-11.4,29.07-16.79,76.21-16.79,105.29,0,14.45,8.34,21.71,.16,21.8,11.09,0,.61-.01,20.32-.05,20.93-.68,10.45-7.93,20.79-21.75,28.77Z"/><g class="cls-15"><g><path class="cls-24" d="M96.36,665.39c-.68,0-1.23-.55-1.23-1.23v-35.94c0-.68,.55-1.23,1.23-1.23s1.23,.55,1.23,1.23v35.94c0,.68-.55,1.23-1.23,1.23Z"/><path class="cls-24" d="M99.19,631.93c0-.65,.5-1.18,1.14-1.23,.03,0,.08,0,.12,0,.68,0,1.24,.56,1.24,1.24v35.92c0,.68-.56,1.24-1.24,1.24-.03,0-.08,0-.12,0-.63-.06-1.14-.59-1.14-1.23v-35.92Z"/><path class="cls-24" d="M103.26,635.63c0-.66,.51-1.19,1.16-1.24,.03,0,.09,0,.12,0,.69,0,1.25,.56,1.25,1.25v35.91c0,.69-.56,1.25-1.25,1.25-.03,0-.09,0-.12,0-.64-.05-1.16-.59-1.16-1.24v-35.91Z"/><path class="cls-24" d="M107.32,639.33c0-.67,.53-1.2,1.18-1.25,.02,0,.1,0,.12,0,.69,0,1.25,.56,1.25,1.25v35.89c0,.69-.56,1.25-1.25,1.25-.02,0-.1,0-.12,0-.66-.05-1.18-.59-1.18-1.25v-35.89Z"/><path class="cls-24" d="M111.39,643.04c0-.67,.54-1.21,1.2-1.26,.02,0,.1,0,.12,0,.69,0,1.26,.57,1.26,1.26v35.88c0,.69-.57,1.26-1.26,1.26-.02,0-.1,0-.12,0-.67-.05-1.2-.58-1.2-1.26v-35.88Z"/><path class="cls-24" d="M115.45,646.74c0-.68,.55-1.22,1.23-1.27,.01,0,.11,0,.12,0,.7,0,1.27,.57,1.27,1.27v35.86c0,.7-.57,1.27-1.27,1.27-.01,0-.11,0-.12,0-.68-.04-1.23-.58-1.23-1.27v-35.86Z"/><path class="cls-24" d="M119.52,650.45c0-.69,.56-1.24,1.25-1.28,0,0,.11,0,.12,0,.7,0,1.28,.58,1.28,1.28v35.85c0,.7-.57,1.28-1.28,1.28,0,0-.11,0-.12,0-.69-.04-1.25-.58-1.25-1.28v-35.85Z"/><path class="cls-24" d="M123.59,654.15c0-.7,.57-1.25,1.27-1.28,0,0,.12,0,.12,0,.71,0,1.28,.58,1.28,1.28v35.83c0,.71-.58,1.28-1.28,1.28,0,0-.12,0-.12,0-.7-.04-1.27-.58-1.27-1.28v-35.83Z"/><path class="cls-24" d="M128.95,656.56h.13c.71,0,1.29,.58,1.29,1.29v35.82c0,.71-.58,1.29-1.29,1.29h-.13c-.71,0-1.29-.58-1.29-1.29v-35.82c0-.71,.58-1.29,1.29-1.29Z"/><rect class="cls-24" x="132.88" y="657.33" width="2.73" height="38.4" rx="1.3" ry="1.3"/><path class="cls-24" d="M139.41,658.1h.14c.72,0,1.3,.58,1.3,1.3v35.8c0,.72-.58,1.3-1.3,1.3h-.14c-.72,0-1.3-.58-1.3-1.3v-35.8c0-.72,.58-1.3,1.3-1.3Z"/><path class="cls-24" d="M144.64,658.87h.15c.72,0,1.3,.58,1.3,1.3v35.8c0,.72-.58,1.3-1.3,1.3h-.15c-.72,0-1.3-.58-1.3-1.3v-35.8c0-.72,.58-1.3,1.3-1.3Z"/><rect class="cls-24" x="148.57" y="659.64" width="2.77" height="38.4" rx="1.31" ry="1.31"/><path class="cls-24" d="M155.11,660.41h.17c.72,0,1.31,.59,1.31,1.31v35.78c0,.72-.59,1.31-1.31,1.31h-.17c-.72,0-1.31-.59-1.31-1.31v-35.78c0-.72,.59-1.31,1.31-1.31Z"/><rect class="cls-24" x="159.03" y="661.18" width="2.8" height="38.4" rx="1.31" ry="1.31"/><rect class="cls-24" x="164.26" y="661.95" width="2.82" height="38.4" rx="1.32" ry="1.32"/><rect class="cls-24" x="169.49" y="662.72" width="2.83" height="38.4" rx="1.32" ry="1.32"/><rect class="cls-24" x="174.81" y="661.93" width="2.82" height="38.4" rx="1.32" ry="1.32"/><rect class="cls-24" x="180.13" y="661.13" width="2.8" height="38.4" rx="1.31" ry="1.31"/><path class="cls-24" d="M186.76,660.34h.17c.72,0,1.31,.59,1.31,1.31v35.78c0,.72-.59,1.31-1.31,1.31h-.17c-.72,0-1.31-.59-1.31-1.31v-35.78c0-.72,.59-1.31,1.31-1.31Z"/><rect class="cls-24" x="190.77" y="659.54" width="2.77" height="38.4" rx="1.31" ry="1.31"/><path class="cls-24" d="M197.4,658.74h.15c.72,0,1.3,.58,1.3,1.3v35.8c0,.72-.58,1.3-1.3,1.3h-.15c-.72,0-1.3-.58-1.3-1.3v-35.8c0-.72,.58-1.3,1.3-1.3Z"/><path class="cls-24" d="M202.71,657.95h.14c.72,0,1.3,.58,1.3,1.3v35.8c0,.72-.58,1.3-1.3,1.3h-.14c-.72,0-1.3-.58-1.3-1.3v-35.8c0-.72,.58-1.3,1.3-1.3Z"/><rect class="cls-24" x="206.74" y="657.15" width="2.73" height="38.4" rx="1.3" ry="1.3"/><path class="cls-24" d="M213.35,656.36h.13c.71,0,1.29,.58,1.29,1.29v35.82c0,.71-.58,1.29-1.29,1.29h-.13c-.71,0-1.29-.58-1.29-1.29v-35.82c0-.71,.58-1.29,1.29-1.29Z"/><path class="cls-24" d="M215.87,654.23c0-.7,.57-1.25,1.27-1.28,0,0,.12,0,.12,0,.71,0,1.28,.58,1.28,1.28v35.83c0,.71-.58,1.28-1.28,1.28,0,0-.12,0-.12,0-.7-.04-1.27-.58-1.27-1.28v-35.83Z"/><path class="cls-24" d="M219.69,650.81c0-.69,.56-1.24,1.25-1.28,0,0,.11,0,.12,0,.7,0,1.28,.57,1.28,1.28v35.85c0,.7-.57,1.28-1.28,1.28,0,0-.11,0-.12,0-.69-.04-1.25-.58-1.25-1.28v-35.85Z"/><path class="cls-24" d="M223.5,647.38c0-.68,.55-1.22,1.23-1.27,.01,0,.11,0,.12,0,.7,0,1.27,.57,1.27,1.27v35.86c0,.7-.57,1.27-1.27,1.27-.01,0-.11,0-.12,0-.68-.04-1.23-.58-1.23-1.27v-35.86Z"/><path class="cls-24" d="M227.32,643.96c0-.67,.54-1.21,1.2-1.26,.02,0,.1,0,.12,0,.69,0,1.26,.57,1.26,1.26v35.88c0,.69-.57,1.26-1.26,1.26-.02,0-.1,0-.12,0-.67-.05-1.2-.58-1.2-1.26v-35.88Z"/><path class="cls-24" d="M231.13,640.54c0-.67,.53-1.2,1.18-1.25,.02,0,.1,0,.12,0,.69,0,1.25,.56,1.25,1.25v35.89c0,.69-.56,1.25-1.25,1.25-.02,0-.1,0-.12,0-.65-.05-1.18-.59-1.18-1.25v-35.89Z"/><path class="cls-24" d="M234.95,637.12c0-.66,.51-1.19,1.16-1.24,.03,0,.09,0,.12,0,.69,0,1.25,.56,1.25,1.25v35.91c0,.69-.56,1.25-1.25,1.25-.03,0-.09,0-.12,0-.64-.05-1.16-.59-1.16-1.24v-35.91Z"/><path class="cls-24" d="M238.76,633.7c0-.65,.5-1.18,1.14-1.23,.03,0,.08,0,.12,0,.68,0,1.24,.56,1.24,1.24v35.92c0,.68-.56,1.24-1.24,1.24-.03,0-.08,0-.12,0-.63-.06-1.14-.59-1.14-1.23v-35.92Z"/><path class="cls-24" d="M243.81,667.45c-.68,0-1.23-.55-1.23-1.23v-35.94c0-.68,.55-1.23,1.23-1.23s1.23,.55,1.23,1.23v35.94c0,.68-.55,1.23-1.23,1.23Z"/></g></g></g><path class="cls-24" d="M223.27,662.21c-29.07,16.79-76.21,16.79-105.29,0-29.07-16.79-29.08-44,0-60.79,29.07-16.79,76.21-16.79,105.29,0,29.07,16.79,29.07,44,0,60.79Z"/><path class="cls-6" d="M220.74,660.75c-27.68,15.98-72.55,15.98-100.22,0-27.68-15.98-27.68-41.89,0-57.86,27.67-15.98,72.55-15.98,100.22,0,27.68,15.98,27.68,41.89,0,57.86Z"/><path class="cls-16" d="M212.13,655.78c-22.92,13.23-60.09,13.23-83.01,0-22.92-13.23-22.92-34.69,0-47.93,22.92-13.23,60.09-13.23,83.01,0,22.92,13.24,22.92,34.69,0,47.93Z"/><path class="cls-24" d="M212.13,610.93c-22.92-13.23-60.09-13.24-83.01,0-10.78,6.22-16.49,14.27-17.13,22.42,.64,8.15,6.35,16.2,17.13,22.42,22.92,13.24,60.09,13.24,83.01,0,10.78-6.22,16.49-14.27,17.13-22.42-.64-8.15-6.35-16.2-17.13-22.42Z"/><path class="cls-16" d="M202.73,613.56l4.08,.18c.47,.27,.18,2.49,.19,2.84,.02,.38-.23,.76-.72,1.04l-2.55,1.47c2.78,1.94,5,3.74,6.39,5.96,1.88,3.03-1.85,6.56-7.39,6.91-4.28,.27-8.27-1.32-9.32-3.73-.42-.97-.93-1.79-1.53-2.44l-12.27,7.09c7.5,8.12,6.81,14.75-2.08,19.88-9.4,5.43-21.57,5.43-33.59,.61l-2.43,1.41c-1.06,.61-2.77,.61-3.83,0l-3.09-1.78c-.53-.3-.79-.71-.79-1.11s-.22-2.57,.31-2.87l2.83,.41c-4.71-2.72-7.95-6.29-9.51-9.66-.24-.51-.32-2.34-.26-2.84,.26-2.27,3.37-2.91,7.53-3.18,4.33-.28,8.23,1.4,9.2,3.85,.77,1.96,2.13,3.78,4.09,5.46l14.27-8.24c-16.8-16.26,13.34-30.95,34.52-19.83l2.47-1.42c.96-.56,2.53-.56,3.5,0Zm-27.96,14.02l10.44-6.03c-7.43-2.09-13.77,2-10.44,6.03Zm-8.02,12.72l-11.04,6.37c7.13,2.46,14.98-1.55,11.04-6.37Z"/><path class="cls-6" d="M202.73,611.25l3.55,2.05c.97,.56,.97,1.46,0,2.02l-2.55,1.47c2.78,1.94,4.86,4.02,6.24,6.25,1.89,3.03-1.7,6.27-7.24,6.62-4.28,.27-8.27-1.32-9.32-3.73-.42-.97-.93-1.79-1.53-2.44l-12.27,7.08c7.5,8.12,6.81,14.75-2.08,19.88-9.4,5.43-21.57,5.43-33.59,.61l-2.43,1.4c-1.06,.61-2.77,.61-3.83,0l-3.09-1.78c-1.06-.61-1.06-1.6,0-2.21l2.35-1.36c-4.71-2.72-7.95-6.29-9.51-9.66-1.33-2.85,2.19-5.7,7.27-6.02,4.33-.28,8.23,1.4,9.2,3.85,.77,1.96,2.13,3.78,4.09,5.46l14.27-8.24c-16.8-16.26,13.34-30.95,34.52-19.83l2.47-1.42c.96-.56,2.53-.56,3.5,0Zm-27.96,14.02l10.44-6.03c-7.43-2.09-13.77,2-10.44,6.03Zm-8.02,12.72l-11.04,6.37c7.13,2.46,14.98-1.55,11.04-6.37Z"/></g><g><g><path class="cls-13" d="M220.95,658.32c-29.07,16.79-76.21,16.79-105.29,0-13.67-7.89-20.91-18.09-21.73-28.43-.05-.62-.08-20.34-.08-20.96-.04-11.03,7.22-2.98,21.8-11.4,29.07-16.79,76.21-16.79,105.29,0,14.45,8.34,21.71,.16,21.8,11.09,0,.61-.01,20.32-.05,20.93-.68,10.45-7.93,20.79-21.75,28.77Z"/><g class="cls-25"><g><path class="cls-24" d="M94.03,642.41c-.68,0-1.23-.55-1.23-1.23v-35.94c0-.68,.55-1.23,1.23-1.23s1.23,.55,1.23,1.23v35.94c0,.68-.55,1.23-1.23,1.23Z"/><path class="cls-24" d="M96.87,608.94c0-.65,.5-1.18,1.14-1.24,.03,0,.08,0,.12,0,.68,0,1.24,.56,1.24,1.24v35.92c0,.68-.56,1.24-1.24,1.24-.03,0-.08,0-.12,0-.63-.06-1.14-.59-1.14-1.23v-35.92Z"/><path class="cls-24" d="M100.93,612.64c0-.66,.51-1.19,1.16-1.24,.03,0,.09,0,.12,0,.69,0,1.25,.56,1.25,1.25v35.91c0,.69-.56,1.25-1.25,1.25-.03,0-.09,0-.12,0-.64-.05-1.16-.59-1.16-1.24v-35.91Z"/><path class="cls-24" d="M105,616.35c0-.67,.53-1.2,1.18-1.25,.02,0,.1,0,.12,0,.69,0,1.25,.56,1.25,1.26v35.89c0,.69-.56,1.25-1.25,1.25-.02,0-.1,0-.12,0-.66-.05-1.18-.59-1.18-1.25v-35.89Z"/><path class="cls-24" d="M109.06,620.05c0-.67,.54-1.21,1.2-1.26,.02,0,.1,0,.12,0,.69,0,1.26,.57,1.26,1.26v35.88c0,.69-.57,1.26-1.26,1.26-.02,0-.1,0-.12,0-.67-.05-1.2-.58-1.2-1.26v-35.88Z"/><path class="cls-24" d="M113.13,623.76c0-.68,.55-1.22,1.23-1.27,.01,0,.11,0,.12,0,.7,0,1.27,.57,1.27,1.27v35.86c0,.7-.57,1.27-1.27,1.27-.01,0-.11,0-.12,0-.68-.04-1.23-.58-1.23-1.27v-35.86Z"/><path class="cls-24" d="M117.2,627.46c0-.69,.56-1.24,1.25-1.28,0,0,.11,0,.12,0,.7,0,1.28,.58,1.28,1.28v35.85c0,.7-.57,1.28-1.28,1.28,0,0-.11,0-.12,0-.69-.04-1.25-.58-1.25-1.28v-35.85Z"/><path class="cls-24" d="M121.26,631.16c0-.7,.57-1.25,1.27-1.28,0,0,.12,0,.12,0,.71,0,1.28,.58,1.28,1.29v35.83c0,.71-.58,1.28-1.28,1.28,0,0-.12,0-.12,0-.7-.04-1.27-.58-1.27-1.28v-35.83Z"/><path class="cls-24" d="M126.62,633.58h.13c.71,0,1.29,.58,1.29,1.29v35.82c0,.71-.58,1.29-1.29,1.29h-.13c-.71,0-1.29-.58-1.29-1.29v-35.82c0-.71,.58-1.29,1.29-1.29Z"/><path class="cls-24" d="M131.85,634.35h.13c.72,0,1.3,.58,1.3,1.3v35.81c0,.72-.58,1.3-1.3,1.3h-.13c-.72,0-1.3-.58-1.3-1.3v-35.81c0-.72,.58-1.3,1.3-1.3Z"/><path class="cls-24" d="M137.09,635.12h.14c.72,0,1.3,.58,1.3,1.3v35.8c0,.72-.58,1.3-1.3,1.3h-.14c-.72,0-1.3-.58-1.3-1.3v-35.8c0-.72,.58-1.3,1.3-1.3Z"/><path class="cls-24" d="M142.32,635.89h.15c.72,0,1.3,.58,1.3,1.3v35.8c0,.72-.58,1.3-1.3,1.3h-.15c-.72,0-1.3-.58-1.3-1.3v-35.8c0-.72,.58-1.3,1.3-1.3Z"/><path class="cls-24" d="M147.55,636.66h.16c.72,0,1.31,.59,1.31,1.31v35.79c0,.72-.59,1.31-1.31,1.31h-.16c-.72,0-1.31-.59-1.31-1.31v-35.79c0-.72,.59-1.31,1.31-1.31Z"/><path class="cls-24" d="M152.78,637.43h.17c.72,0,1.31,.59,1.31,1.31v35.78c0,.72-.59,1.31-1.31,1.31h-.17c-.72,0-1.31-.59-1.31-1.31v-35.78c0-.72,.59-1.31,1.31-1.31Z"/><path class="cls-24" d="M158.02,638.2h.17c.73,0,1.31,.59,1.31,1.31v35.77c0,.73-.59,1.31-1.31,1.31h-.18c-.72,0-1.31-.59-1.31-1.31v-35.78c0-.73,.59-1.31,1.31-1.31Z"/><path class="cls-24" d="M163.25,638.97h.18c.73,0,1.32,.59,1.32,1.32v35.77c0,.73-.59,1.32-1.32,1.32h-.18c-.73,0-1.32-.59-1.32-1.32v-35.77c0-.73,.59-1.32,1.32-1.32Z"/><path class="cls-24" d="M168.48,639.74h.19c.73,0,1.32,.59,1.32,1.32v35.76c0,.73-.59,1.32-1.32,1.32h-.19c-.73,0-1.32-.59-1.32-1.32v-35.76c0-.73,.59-1.32,1.32-1.32Z"/><path class="cls-24" d="M173.8,638.94h.18c.73,0,1.32,.59,1.32,1.32v35.77c0,.73-.59,1.32-1.32,1.32h-.18c-.73,0-1.32-.59-1.32-1.32v-35.77c0-.73,.59-1.32,1.32-1.32Z"/><path class="cls-24" d="M179.12,638.14h.18c.73,0,1.31,.59,1.31,1.31v35.77c0,.73-.59,1.31-1.31,1.31h-.18c-.72,0-1.31-.59-1.31-1.31v-35.78c0-.72,.59-1.31,1.31-1.31Z"/><path class="cls-24" d="M184.44,637.35h.17c.72,0,1.31,.59,1.31,1.31v35.78c0,.72-.59,1.31-1.31,1.31h-.17c-.72,0-1.31-.59-1.31-1.31v-35.78c0-.72,.59-1.31,1.31-1.31Z"/><rect class="cls-24" x="188.45" y="636.55" width="2.77" height="38.4" rx="1.31" ry="1.31"/><path class="cls-24" d="M195.07,635.76h.15c.72,0,1.3,.58,1.3,1.3v35.8c0,.72-.58,1.3-1.3,1.3h-.15c-.72,0-1.3-.58-1.3-1.3v-35.8c0-.72,.58-1.3,1.3-1.3Z"/><rect class="cls-24" x="199.09" y="634.96" width="2.74" height="38.4" rx="1.3" ry="1.3"/><rect class="cls-24" x="204.41" y="634.17" width="2.73" height="38.4" rx="1.3" ry="1.3"/><path class="cls-24" d="M211.03,633.37h.13c.71,0,1.29,.58,1.29,1.29v35.82c0,.71-.58,1.29-1.29,1.29h-.12c-.71,0-1.29-.58-1.29-1.29v-35.82c0-.71,.58-1.29,1.29-1.29Z"/><path class="cls-24" d="M213.55,631.24c0-.7,.57-1.25,1.27-1.28,0,0,.12,0,.12,0,.71,0,1.29,.58,1.29,1.29v35.83c0,.71-.58,1.29-1.29,1.29,0,0-.12,0-.12,0-.7-.04-1.27-.58-1.27-1.28v-35.83Z"/><path class="cls-24" d="M217.36,627.82c0-.69,.56-1.24,1.25-1.28,0,0,.11,0,.12,0,.7,0,1.28,.58,1.28,1.28v35.85c0,.7-.58,1.28-1.28,1.28,0,0-.11,0-.12,0-.69-.04-1.25-.58-1.25-1.28v-35.85Z"/><path class="cls-24" d="M221.18,624.4c0-.68,.55-1.22,1.23-1.27,.01,0,.11,0,.12,0,.7,0,1.27,.57,1.27,1.27v35.86c0,.7-.57,1.27-1.27,1.27-.01,0-.11,0-.12,0-.68-.04-1.23-.58-1.23-1.27v-35.86Z"/><path class="cls-24" d="M224.99,620.98c0-.67,.54-1.21,1.2-1.26,.02,0,.1,0,.12,0,.69,0,1.26,.57,1.26,1.26v35.88c0,.69-.57,1.26-1.26,1.26-.02,0-.1,0-.12,0-.67-.05-1.2-.59-1.2-1.26v-35.88Z"/><path class="cls-24" d="M228.81,617.55c0-.67,.53-1.2,1.18-1.25,.02,0,.1,0,.12,0,.69,0,1.26,.56,1.26,1.26v35.89c0,.69-.56,1.26-1.26,1.26-.02,0-.1,0-.12,0-.65-.05-1.18-.59-1.18-1.25v-35.89Z"/><path class="cls-24" d="M232.62,614.13c0-.66,.51-1.19,1.16-1.24,.03,0,.09,0,.12,0,.69,0,1.25,.56,1.25,1.25v35.91c0,.69-.56,1.25-1.25,1.25-.03,0-.09,0-.12,0-.64-.05-1.16-.59-1.16-1.24v-35.91Z"/><path class="cls-24" d="M236.44,610.71c0-.65,.5-1.18,1.14-1.24,.03,0,.08,0,.12,0,.68,0,1.24,.56,1.24,1.24v35.92c0,.68-.56,1.24-1.24,1.24-.03,0-.08,0-.12,0-.63-.06-1.14-.59-1.14-1.24v-35.92Z"/><path class="cls-24" d="M241.48,644.46c-.68,0-1.23-.55-1.23-1.23v-35.94c0-.68,.55-1.23,1.23-1.23s1.23,.55,1.23,1.23v35.94c0,.68-.55,1.23-1.23,1.23Z"/></g></g></g><path class="cls-24" d="M220.95,639.22c-29.07,16.79-76.21,16.79-105.29,0-29.07-16.79-29.08-44,0-60.79,29.07-16.79,76.21-16.79,105.29,0,29.07,16.79,29.07,44,0,60.79Z"/><path class="cls-6" d="M218.42,637.76c-27.68,15.98-72.55,15.98-100.22,0-27.68-15.98-27.68-41.89,0-57.86,27.68-15.98,72.55-15.98,100.22,0,27.68,15.98,27.68,41.89,0,57.86Z"/><path class="cls-16" d="M209.81,632.79c-22.92,13.23-60.09,13.23-83.01,0-22.92-13.24-22.92-34.69,0-47.93,22.92-13.23,60.09-13.23,83.01,0,22.92,13.24,22.92,34.69,0,47.93Z"/><path class="cls-24" d="M209.81,587.95c-22.92-13.24-60.09-13.24-83.01,0-10.78,6.23-16.49,14.27-17.13,22.42,.64,8.15,6.35,16.2,17.13,22.42,22.92,13.24,60.09,13.24,83.01,0,10.78-6.23,16.49-14.27,17.13-22.42-.64-8.15-6.35-16.2-17.13-22.42Z"/><path class="cls-16" d="M200.41,590.57l4.08,.18c.47,.27,.18,2.49,.2,2.84,.02,.38-.23,.76-.72,1.04l-2.55,1.47c2.78,1.94,5,3.74,6.39,5.96,1.89,3.03-1.85,6.56-7.39,6.91-4.28,.27-8.27-1.32-9.32-3.73-.42-.97-.93-1.79-1.53-2.44l-12.27,7.09c7.5,8.12,6.81,14.75-2.08,19.88-9.4,5.43-21.57,5.43-33.59,.61l-2.43,1.41c-1.06,.61-2.77,.61-3.83,0l-3.09-1.78c-.53-.31-.79-.71-.79-1.11s-.22-2.57,.31-2.87l2.83,.41c-4.71-2.72-7.95-6.29-9.51-9.66-.24-.51-.32-2.34-.26-2.84,.26-2.27,3.37-2.91,7.53-3.18,4.33-.28,8.23,1.4,9.2,3.85,.77,1.96,2.14,3.78,4.09,5.46l14.27-8.24c-16.8-16.26,13.34-30.95,34.52-19.83l2.47-1.42c.96-.56,2.53-.56,3.49,0Zm-27.95,14.02l10.44-6.03c-7.43-2.09-13.77,2-10.44,6.03Zm-8.02,12.72l-11.04,6.37c7.13,2.46,14.98-1.55,11.04-6.37Z"/><path class="cls-6" d="M200.41,588.26l3.55,2.05c.96,.56,.96,1.46,0,2.02l-2.55,1.47c2.78,1.94,4.86,4.02,6.24,6.24,1.89,3.03-1.7,6.27-7.24,6.62-4.28,.27-8.27-1.32-9.32-3.74-.42-.97-.93-1.79-1.53-2.44l-12.27,7.08c7.5,8.12,6.81,14.75-2.08,19.88-9.4,5.43-21.57,5.43-33.59,.61l-2.43,1.41c-1.06,.61-2.77,.61-3.83,0l-3.09-1.78c-1.06-.61-1.06-1.6,0-2.21l2.35-1.36c-4.71-2.72-7.95-6.29-9.51-9.66-1.32-2.85,2.19-5.7,7.27-6.02,4.33-.28,8.23,1.4,9.2,3.85,.77,1.96,2.14,3.78,4.09,5.46l14.27-8.24c-16.8-16.26,13.34-30.95,34.52-19.83l2.47-1.42c.96-.56,2.53-.56,3.49,0Zm-27.95,14.02l10.44-6.03c-7.43-2.09-13.77,2-10.44,6.03Zm-8.02,12.72l-11.04,6.37c7.13,2.46,14.98-1.54,11.04-6.37Z"/></g></g><g><path class="cls-2" d="M422.83,289.88c-31.14-18.04-81.6-18.1-112.69-.15-5.83,3.37-10.57,7.13-14.21,11.13-9.25,2.23-17.93,5.52-25.46,9.87-31.1,17.95-31.06,47.13,.08,65.16,31.14,18.04,81.6,18.1,112.69,.15,5.83-3.37,32.13-16.65,39.67-21,9.87-5.7,16.61-12.53,20.2-19.78,.13-.27,3.44,1.8,3.42,1.5-.08-1.58-.08-7.58-.4-12.24,.93-12.46-6.84-25.11-23.31-34.65Z"/><g><g><path class="cls-13" d="M271.52,372.7c30.21,17.44,79.2,17.44,109.42,0,14.21-8.2,21.73-18.8,22.58-29.54,.05-.65,.08-21.14,.08-21.79,.05-11.47-7.51-3.09-22.66-11.84-30.21-17.44-79.2-17.44-109.42,0-15.01,8.67-22.57,.17-22.66,11.53,0,.63,.01,21.12,.05,21.75,.71,10.86,8.24,21.6,22.61,29.89Z"/><g class="cls-11"><g><path class="cls-24" d="M403.41,356.16c.71,0,1.28-.58,1.28-1.28v-37.35c0-.7-.58-1.28-1.28-1.28s-1.28,.58-1.28,1.28v37.35c0,.7,.58,1.28,1.28,1.28Z"/><path class="cls-24" d="M397.87,321.38v37.33c0,.67,.52,1.22,1.18,1.28,.04,0,.09,0,.12,0,.71,0,1.29-.58,1.29-1.29v-37.33c0-.71-.58-1.29-1.29-1.29-.04,0-.09,0-.12,0-.66,.06-1.18,.61-1.18,1.28Z"/><path class="cls-24" d="M393.62,325.23v37.32c0,.68,.53,1.24,1.2,1.29,.03,0,.09,0,.12,0,.71,0,1.3-.58,1.3-1.3v-37.32c0-.71-.58-1.3-1.3-1.3-.03,0-.09,0-.12,0-.67,.06-1.2,.61-1.2,1.29Z"/><path class="cls-24" d="M389.36,329.08v37.3c0,.69,.55,1.25,1.23,1.3,.03,0,.1,0,.13,0,.72,0,1.3-.59,1.3-1.3v-37.3c0-.72-.59-1.3-1.3-1.3-.03,0-.1,0-.13,0-.68,.05-1.23,.61-1.23,1.3Z"/><path class="cls-24" d="M385.1,332.93v37.29c0,.7,.56,1.26,1.25,1.31,.02,0,.11,0,.13,0,.72,0,1.31-.59,1.31-1.31v-37.29c0-.72-.59-1.31-1.31-1.31-.02,0-.11,0-.13,0-.69,.05-1.25,.61-1.25,1.31Z"/><path class="cls-24" d="M380.84,336.78v37.27c0,.71,.57,1.27,1.27,1.32,.02,0,.11,0,.13,0,.73,0,1.32-.59,1.32-1.32v-37.27c0-.73-.59-1.32-1.32-1.32-.02,0-.11,0-.13,0-.7,.05-1.27,.61-1.27,1.32Z"/><path class="cls-24" d="M376.58,340.63v37.26c0,.72,.58,1.28,1.3,1.33,.01,0,.12,0,.13,0,.73,0,1.33-.6,1.33-1.33v-37.26c0-.73-.6-1.33-1.33-1.33-.01,0-.12,0-.13,0-.71,.04-1.3,.61-1.3,1.33Z"/><path class="cls-24" d="M372.33,344.48v37.24c0,.73,.59,1.3,1.32,1.34,0,0,.12,0,.13,0,.74,0,1.34-.6,1.34-1.34v-37.24c0-.73-.6-1.33-1.34-1.33,0,0-.12,0-.13,0-.73,.04-1.32,.61-1.32,1.33Z"/><path class="cls-24" d="M369.41,346.98h.13c.74,0,1.34,.6,1.34,1.34v37.22c0,.74-.6,1.34-1.34,1.34h-.13c-.74,0-1.34-.6-1.34-1.34v-37.22c0-.74,.6-1.34,1.34-1.34Z"/><rect class="cls-24" x="362.62" y="347.78" width="2.83" height="39.91" rx="1.35" ry="1.35"/><path class="cls-24" d="M358.52,348.58h.15c.75,0,1.35,.61,1.35,1.35v37.21c0,.75-.61,1.35-1.35,1.35h-.15c-.75,0-1.35-.61-1.35-1.35v-37.21c0-.75,.61-1.35,1.35-1.35Z"/><path class="cls-24" d="M353.07,349.39h.16c.75,0,1.35,.61,1.35,1.35v37.2c0,.75-.61,1.35-1.35,1.35h-.16c-.75,0-1.35-.61-1.35-1.35v-37.2c0-.75,.61-1.35,1.35-1.35Z"/><rect class="cls-24" x="346.27" y="350.19" width="2.88" height="39.91" rx="1.36" ry="1.36"/><rect class="cls-24" x="340.82" y="350.99" width="2.9" height="39.91" rx="1.36" ry="1.36"/><path class="cls-24" d="M336.73,351.79h.18c.75,0,1.37,.61,1.37,1.37v37.18c0,.75-.61,1.37-1.37,1.37h-.18c-.75,0-1.37-.61-1.37-1.37v-37.18c0-.75,.61-1.37,1.37-1.37Z"/><rect class="cls-24" x="329.92" y="352.59" width="2.93" height="39.91" rx="1.37" ry="1.37"/><rect class="cls-24" x="324.47" y="353.39" width="2.95" height="39.91" rx="1.37" ry="1.37"/><rect class="cls-24" x="318.95" y="352.56" width="2.93" height="39.91" rx="1.37" ry="1.37"/><path class="cls-24" d="M314.8,351.73h.18c.75,0,1.37,.61,1.37,1.37v37.18c0,.75-.61,1.37-1.37,1.37h-.18c-.75,0-1.37-.61-1.37-1.37v-37.18c0-.75,.61-1.37,1.37-1.37Z"/><rect class="cls-24" x="307.92" y="350.91" width="2.9" height="39.91" rx="1.36" ry="1.36"/><rect class="cls-24" x="302.41" y="350.08" width="2.88" height="39.91" rx="1.36" ry="1.36"/><path class="cls-24" d="M298.25,349.25h.16c.75,0,1.35,.61,1.35,1.35v37.2c0,.75-.61,1.35-1.35,1.35h-.16c-.75,0-1.35-.61-1.35-1.35v-37.2c0-.75,.61-1.35,1.35-1.35Z"/><path class="cls-24" d="M292.73,348.42h.15c.75,0,1.35,.61,1.35,1.35v37.21c0,.75-.61,1.35-1.35,1.35h-.15c-.75,0-1.35-.61-1.35-1.35v-37.21c0-.75,.61-1.35,1.35-1.35Z"/><rect class="cls-24" x="285.87" y="347.6" width="2.83" height="39.91" rx="1.35" ry="1.35"/><path class="cls-24" d="M281.69,346.77h.13c.74,0,1.34,.6,1.34,1.34v37.22c0,.74-.6,1.34-1.34,1.34h-.13c-.74,0-1.34-.6-1.34-1.34v-37.22c0-.74,.6-1.34,1.34-1.34Z"/><path class="cls-24" d="M276.42,344.56v37.24c0,.73,.59,1.3,1.32,1.33,0,0,.12,0,.13,0,.73,0,1.34-.6,1.34-1.34v-37.24c0-.73-.6-1.33-1.34-1.33,0,0-.12,0-.13,0-.73,.04-1.32,.61-1.32,1.33Z"/><path class="cls-24" d="M272.49,341v37.26c0,.72,.58,1.28,1.3,1.33,.01,0,.12,0,.13,0,.73,0,1.33-.6,1.33-1.33v-37.26c0-.73-.6-1.33-1.33-1.33-.01,0-.12,0-.13,0-.71,.04-1.3,.61-1.3,1.33Z"/><path class="cls-24" d="M268.55,337.45v37.27c0,.71,.57,1.27,1.27,1.32,.02,0,.11,0,.13,0,.73,0,1.32-.59,1.32-1.32v-37.27c0-.73-.59-1.32-1.32-1.32-.02,0-.11,0-.13,0-.7,.05-1.27,.61-1.27,1.32Z"/><path class="cls-24" d="M264.62,333.89v37.29c0,.7,.56,1.26,1.25,1.31,.02,0,.11,0,.13,0,.72,0,1.31-.59,1.31-1.31v-37.29c0-.72-.59-1.31-1.31-1.31-.02,0-.11,0-.13,0-.69,.05-1.25,.61-1.25,1.31Z"/><path class="cls-24" d="M260.69,330.33v37.3c0,.69,.55,1.25,1.23,1.3,.03,0,.1,0,.13,0,.72,0,1.3-.59,1.3-1.3v-37.3c0-.72-.59-1.3-1.3-1.3-.03,0-.1,0-.13,0-.68,.05-1.23,.61-1.23,1.3Z"/><path class="cls-24" d="M256.76,326.78v37.32c0,.68,.53,1.24,1.2,1.29,.03,0,.09,0,.12,0,.71,0,1.3-.58,1.3-1.3v-37.32c0-.71-.58-1.3-1.3-1.3-.03,0-.09,0-.12,0-.67,.06-1.2,.61-1.2,1.29Z"/><path class="cls-24" d="M252.82,323.22v37.33c0,.67,.52,1.23,1.18,1.28,.04,0,.09,0,.12,0,.71,0,1.29-.58,1.29-1.29v-37.33c0-.71-.58-1.29-1.29-1.29-.04,0-.09,0-.12,0-.66,.06-1.18,.61-1.18,1.28Z"/><path class="cls-24" d="M250.17,358.3c.7,0,1.28-.58,1.28-1.28v-37.35c0-.7-.58-1.28-1.28-1.28s-1.28,.58-1.28,1.28v37.35c0,.71,.58,1.28,1.28,1.28Z"/></g></g></g><path class="cls-24" d="M271.52,352.85c30.21,17.44,79.2,17.44,109.42,0,30.21-17.45,30.22-45.73,0-63.17-30.21-17.44-79.2-17.44-109.42,0-30.22,17.45-30.22,45.73,0,63.17Z"/><path class="cls-6" d="M274.15,351.34c28.76,16.61,75.39,16.6,104.16,0,28.76-16.61,28.76-43.53,0-60.14-28.76-16.61-75.4-16.61-104.16,0-28.76,16.61-28.76,43.53,0,60.14Z"/><path class="cls-16" d="M283.09,346.17c23.82,13.75,62.45,13.75,86.27,0,23.82-13.75,23.82-36.06,0-49.81-23.82-13.75-62.45-13.75-86.27,0-23.82,13.75-23.82,36.05,0,49.81Z"/><path class="cls-24" d="M283.09,299.56c23.82-13.75,62.45-13.75,86.27,0,11.21,6.47,17.14,14.83,17.8,23.3-.66,8.47-6.59,16.84-17.8,23.31-23.82,13.75-62.45,13.75-86.27,0-11.21-6.47-17.14-14.83-17.8-23.3,.66-8.47,6.6-16.83,17.8-23.3Z"/><path class="cls-16" d="M296.49,302.29l2.56,1.48c22.01-11.55,53.33,3.72,35.87,20.61l14.83,8.56c2.03-1.75,3.45-3.64,4.25-5.68,1-2.55,5.06-4.29,9.56-4,4.33,.28,7.56,.95,7.83,3.31,.06,.52-.03,2.42-.27,2.95-1.63,3.51-4.99,7.21-9.89,10.04l2.94-.43c.55,.32,.32,2.57,.32,2.99s-.27,.83-.83,1.15l-3.21,1.85c-1.1,.63-2.88,.63-3.98,0l-2.53-1.46c-12.49,5.01-25.13,5.01-34.9-.64-9.24-5.33-9.96-12.22-2.16-20.66l-12.75-7.36c-.62,.68-1.15,1.53-1.59,2.54-1.09,2.51-5.24,4.16-9.68,3.88-5.75-.36-9.64-4.03-7.68-7.18,1.44-2.31,3.76-4.18,6.64-6.2l-2.65-1.53c-.52-.3-.77-.69-.75-1.09,.02-.37-.28-2.67,.2-2.95l4.24-.19c1-.58,2.63-.58,3.63,0Zm14.57,8.31l10.85,6.27c3.46-4.19-3.13-8.44-10.85-6.27Zm30.67,26.11l-11.47-6.62c-4.1,5.02,4.07,9.18,11.47,6.62Z"/><path class="cls-6" d="M296.49,299.89l2.56,1.48c22.01-11.56,53.33,3.71,35.87,20.61l14.83,8.56c2.03-1.75,3.45-3.64,4.25-5.68,1-2.55,5.06-4.29,9.56-4,5.28,.34,8.93,3.3,7.55,6.26-1.63,3.51-4.99,7.21-9.89,10.04l2.44,1.41c1.1,.63,1.1,1.66,0,2.3l-3.21,1.85c-1.1,.64-2.88,.64-3.98,0l-2.53-1.46c-12.49,5.01-25.13,5.01-34.9-.64-9.24-5.33-9.96-12.22-2.16-20.66l-12.75-7.36c-.62,.68-1.15,1.53-1.59,2.54-1.09,2.51-5.24,4.16-9.68,3.88-5.75-.36-9.48-3.74-7.52-6.88,1.44-2.31,3.6-4.48,6.49-6.49l-2.65-1.53c-1-.58-1-1.52,0-2.1l3.69-2.13c1-.58,2.63-.58,3.63,0Zm14.57,8.31l10.85,6.27c3.46-4.19-3.13-8.44-10.85-6.27Zm30.67,26.11l-11.47-6.62c-4.1,5.02,4.07,9.18,11.47,6.62Z"/></g><g><g><path class="cls-13" d="M275.81,345.33c30.21,17.44,79.2,17.44,109.42,0,14.21-8.2,21.73-18.8,22.58-29.54,.05-.65,.08-21.14,.08-21.79,.05-11.47-7.51-3.1-22.66-11.84-30.21-17.44-79.2-17.44-109.42,0-15.01,8.67-22.57,.17-22.66,11.53,0,.63,.01,21.12,.05,21.75,.71,10.86,8.24,21.6,22.61,29.9Z"/><g class="cls-12"><g><path class="cls-24" d="M407.71,328.78c.7,0,1.28-.58,1.28-1.28v-37.35c0-.7-.58-1.28-1.28-1.28s-1.28,.58-1.28,1.28v37.35c0,.71,.58,1.28,1.28,1.28Z"/><path class="cls-24" d="M402.17,294v37.33c0,.67,.52,1.23,1.18,1.28,.04,0,.09,0,.12,0,.71,0,1.29-.58,1.29-1.29v-37.33c0-.71-.58-1.29-1.29-1.29-.04,0-.09,0-.12,0-.66,.06-1.18,.61-1.18,1.28Z"/><path class="cls-24" d="M397.91,297.85v37.32c0,.68,.54,1.24,1.21,1.29,.03,0,.09,0,.12,0,.71,0,1.3-.58,1.3-1.3v-37.32c0-.71-.58-1.3-1.3-1.3-.03,0-.09,0-.12,0-.67,.06-1.21,.61-1.21,1.29Z"/><path class="cls-24" d="M393.65,301.7v37.3c0,.69,.55,1.25,1.23,1.3,.03,0,.1,0,.13,0,.72,0,1.3-.59,1.3-1.3v-37.3c0-.72-.59-1.3-1.3-1.3-.03,0-.1,0-.13,0-.68,.05-1.23,.61-1.23,1.3Z"/><path class="cls-24" d="M389.39,305.55v37.29c0,.7,.56,1.26,1.25,1.31,.02,0,.11,0,.13,0,.72,0,1.31-.59,1.31-1.31v-37.29c0-.72-.59-1.31-1.31-1.31-.02,0-.11,0-.13,0-.69,.05-1.25,.61-1.25,1.31Z"/><path class="cls-24" d="M385.14,309.4v37.27c0,.71,.57,1.27,1.27,1.32,.02,0,.11,0,.13,0,.73,0,1.32-.59,1.32-1.32v-37.27c0-.73-.59-1.32-1.32-1.32-.02,0-.11,0-.13,0-.7,.05-1.27,.61-1.27,1.32Z"/><path class="cls-24" d="M380.88,313.25v37.25c0,.72,.58,1.28,1.3,1.33,.01,0,.12,0,.13,0,.73,0,1.33-.6,1.33-1.33v-37.25c0-.73-.6-1.33-1.33-1.33-.01,0-.12,0-.13,0-.71,.04-1.3,.61-1.3,1.33Z"/><path class="cls-24" d="M376.62,317.1v37.24c0,.73,.59,1.3,1.32,1.33,0,0,.12,0,.13,0,.73,0,1.34-.6,1.34-1.34v-37.24c0-.73-.6-1.34-1.34-1.34,0,0-.12,0-.13,0-.73,.04-1.32,.61-1.32,1.34Z"/><rect class="cls-24" x="372.36" y="319.61" width="2.82" height="39.91" rx="1.34" ry="1.34"/><rect class="cls-24" x="366.91" y="320.41" width="2.83" height="39.91" rx="1.35" ry="1.35"/><rect class="cls-24" x="361.46" y="321.21" width="2.85" height="39.91" rx="1.35" ry="1.35"/><path class="cls-24" d="M357.37,322.01h.16c.75,0,1.35,.61,1.35,1.35v37.2c0,.75-.61,1.35-1.35,1.35h-.16c-.75,0-1.35-.61-1.35-1.35v-37.2c0-.75,.61-1.35,1.35-1.35Z"/><rect class="cls-24" x="350.56" y="322.81" width="2.88" height="39.91" rx="1.36" ry="1.36"/><rect class="cls-24" x="345.11" y="323.61" width="2.9" height="39.91" rx="1.36" ry="1.36"/><rect class="cls-24" x="339.66" y="324.41" width="2.91" height="39.91" rx="1.37" ry="1.37"/><rect class="cls-24" x="334.21" y="325.21" width="2.93" height="39.91" rx="1.37" ry="1.37"/><path class="cls-24" d="M330.13,326.01h.2c.76,0,1.37,.62,1.37,1.37v37.16c0,.76-.62,1.37-1.37,1.37h-.2c-.76,0-1.37-.62-1.37-1.37v-37.16c0-.76,.62-1.37,1.37-1.37Z"/><path class="cls-24" d="M324.62,325.18h.19c.76,0,1.37,.61,1.37,1.37v37.17c0,.76-.61,1.37-1.37,1.37h-.19c-.76,0-1.37-.61-1.37-1.37v-37.17c0-.76,.61-1.37,1.37-1.37Z"/><path class="cls-24" d="M319.1,324.36h.18c.75,0,1.37,.61,1.37,1.37v37.18c0,.75-.61,1.37-1.37,1.37h-.18c-.75,0-1.37-.61-1.37-1.37v-37.18c0-.75,.61-1.37,1.37-1.37Z"/><rect class="cls-24" x="312.22" y="323.53" width="2.9" height="39.91" rx="1.36" ry="1.36"/><rect class="cls-24" x="306.7" y="322.7" width="2.88" height="39.91" rx="1.36" ry="1.36"/><path class="cls-24" d="M302.54,321.87h.16c.75,0,1.36,.61,1.36,1.36v37.2c0,.75-.61,1.35-1.35,1.35h-.16c-.75,0-1.35-.61-1.35-1.35v-37.2c0-.75,.61-1.36,1.36-1.36Z"/><path class="cls-24" d="M297.03,321.05h.15c.75,0,1.35,.61,1.35,1.35v37.21c0,.75-.61,1.35-1.35,1.35h-.15c-.75,0-1.35-.61-1.35-1.35v-37.21c0-.75,.61-1.35,1.35-1.35Z"/><path class="cls-24" d="M291.51,320.22h.14c.74,0,1.35,.6,1.35,1.35v37.22c0,.74-.6,1.35-1.35,1.35h-.14c-.74,0-1.35-.6-1.35-1.35v-37.22c0-.74,.6-1.35,1.35-1.35Z"/><path class="cls-24" d="M285.99,319.39h.13c.74,0,1.34,.6,1.34,1.34v37.22c0,.74-.6,1.34-1.34,1.34h-.13c-.74,0-1.34-.6-1.34-1.34v-37.22c0-.74,.6-1.34,1.34-1.34Z"/><path class="cls-24" d="M280.71,317.18v37.24c0,.73,.59,1.3,1.32,1.34,0,0,.12,0,.13,0,.73,0,1.33-.6,1.33-1.34v-37.24c0-.73-.6-1.33-1.33-1.33,0,0-.12,0-.13,0-.73,.04-1.32,.6-1.32,1.33Z"/><path class="cls-24" d="M276.78,313.62v37.26c0,.72,.58,1.28,1.3,1.33,.01,0,.12,0,.13,0,.73,0,1.33-.6,1.33-1.33v-37.26c0-.73-.6-1.33-1.33-1.33-.01,0-.12,0-.13,0-.72,.04-1.3,.61-1.3,1.33Z"/><path class="cls-24" d="M272.85,310.07v37.27c0,.71,.57,1.27,1.27,1.32,.02,0,.11,0,.13,0,.73,0,1.32-.59,1.32-1.32v-37.27c0-.73-.59-1.32-1.32-1.32-.02,0-.11,0-.13,0-.7,.05-1.27,.61-1.27,1.32Z"/><path class="cls-24" d="M268.92,306.51v37.29c0,.7,.56,1.26,1.25,1.31,.02,0,.11,0,.13,0,.72,0,1.31-.59,1.31-1.31v-37.29c0-.72-.59-1.31-1.31-1.31-.02,0-.11,0-.13,0-.69,.05-1.25,.61-1.25,1.31Z"/><path class="cls-24" d="M264.98,302.96v37.3c0,.69,.55,1.25,1.23,1.3,.03,0,.1,0,.13,0,.72,0,1.3-.59,1.3-1.3v-37.3c0-.72-.59-1.3-1.3-1.3-.03,0-.1,0-.13,0-.68,.05-1.23,.61-1.23,1.3Z"/><path class="cls-24" d="M261.05,299.4v37.32c0,.68,.53,1.24,1.21,1.29,.03,0,.09,0,.12,0,.71,0,1.3-.58,1.3-1.3v-37.32c0-.71-.58-1.3-1.3-1.3-.03,0-.09,0-.12,0-.67,.06-1.21,.61-1.21,1.29Z"/><path class="cls-24" d="M257.12,295.84v37.33c0,.67,.52,1.22,1.18,1.28,.04,0,.09,0,.12,0,.71,0,1.29-.58,1.29-1.29v-37.33c0-.71-.58-1.29-1.29-1.29-.04,0-.09,0-.12,0-.66,.06-1.18,.61-1.18,1.28Z"/><path class="cls-24" d="M254.47,330.92c.7,0,1.28-.58,1.28-1.28v-37.35c0-.7-.58-1.28-1.28-1.28s-1.28,.58-1.28,1.28v37.35c0,.7,.58,1.28,1.28,1.28Z"/></g></g></g><path class="cls-24" d="M275.81,325.48c30.21,17.44,79.2,17.44,109.42,0,30.22-17.44,30.22-45.73,0-63.17-30.21-17.45-79.2-17.44-109.42,0-30.21,17.45-30.21,45.73,0,63.17Z"/><path class="cls-6" d="M278.44,323.96c28.76,16.61,75.4,16.61,104.16,0,28.76-16.61,28.76-43.53,0-60.13-28.76-16.61-75.39-16.61-104.16,0-28.76,16.61-28.76,43.53,0,60.13Z"/><path class="cls-16" d="M287.38,318.79c23.82,13.75,62.45,13.75,86.27,0,23.82-13.75,23.82-36.05,0-49.81-23.82-13.75-62.45-13.75-86.27,0-23.82,13.75-23.83,36.06,0,49.81Z"/><path class="cls-24" d="M287.39,272.19c23.82-13.75,62.45-13.75,86.27,0,11.21,6.47,17.14,14.83,17.8,23.3-.66,8.47-6.6,16.83-17.8,23.3-23.82,13.75-62.45,13.75-86.27,0-11.2-6.47-17.14-14.83-17.8-23.3,.66-8.47,6.59-16.84,17.8-23.3Z"/><path class="cls-16" d="M300.78,274.92l2.56,1.48c22.01-11.56,53.33,3.72,35.87,20.61l14.83,8.56c2.03-1.75,3.45-3.64,4.25-5.68,1-2.55,5.06-4.29,9.56-4,4.33,.28,7.56,.95,7.83,3.31,.06,.52-.03,2.42-.27,2.95-1.63,3.51-4.99,7.21-9.89,10.04l2.94-.43c.55,.32,.32,2.57,.32,2.99s-.27,.83-.82,1.15l-3.21,1.85c-1.1,.63-2.88,.63-3.98,0l-2.53-1.46c-12.49,5.01-25.13,5.01-34.9-.64-9.24-5.33-9.96-12.22-2.16-20.66l-12.75-7.36c-.62,.68-1.15,1.53-1.59,2.54-1.09,2.51-5.23,4.16-9.68,3.88-5.75-.36-9.64-4.03-7.68-7.18,1.44-2.31,3.76-4.18,6.64-6.2l-2.65-1.53c-.52-.3-.77-.69-.75-1.08,.02-.37-.28-2.67,.2-2.95l4.24-.19c1-.58,2.63-.58,3.63,0Zm14.57,8.31l10.85,6.27c3.46-4.19-3.13-8.44-10.85-6.27Zm30.67,26.11l-11.47-6.62c-4.1,5.02,4.07,9.18,11.47,6.62Z"/><path class="cls-6" d="M300.78,272.52l2.56,1.48c22.01-11.55,53.33,3.72,35.87,20.61l14.83,8.56c2.03-1.75,3.45-3.64,4.25-5.68,1-2.55,5.06-4.29,9.56-4,5.28,.34,8.93,3.3,7.55,6.26-1.63,3.51-4.99,7.21-9.89,10.04l2.44,1.41c1.1,.63,1.1,1.66,0,2.3l-3.21,1.85c-1.1,.63-2.88,.63-3.98,0l-2.53-1.46c-12.49,5.01-25.13,5.01-34.9-.64-9.24-5.33-9.96-12.22-2.16-20.66l-12.75-7.36c-.62,.68-1.15,1.53-1.59,2.54-1.09,2.51-5.23,4.16-9.68,3.88-5.75-.36-9.48-3.74-7.52-6.88,1.44-2.31,3.6-4.48,6.49-6.49l-2.65-1.53c-1-.58-1-1.52,0-2.1l3.69-2.13c1-.58,2.63-.58,3.63,0Zm14.57,8.31l10.85,6.27c3.46-4.19-3.13-8.44-10.85-6.27Zm30.67,26.11l-11.47-6.62c-4.1,5.02,4.07,9.18,11.47,6.62Z"/></g></g></g></g></g></g></svg>